<?xml version="1.0" encoding="utf-8" standalone="no"?>
<!DOCTYPE svg PUBLIC "-//W3C//DTD SVG 1.1//EN"
  "http://www.w3.org/Graphics/SVG/1.1/DTD/svg11.dtd">
<svg xmlns:xlink="http://www.w3.org/1999/xlink" width="365.40875pt" height="287.674411pt" viewBox="0 0 365.40875 287.674411" xmlns="http://www.w3.org/2000/svg" version="1.1">
 <metadata>
  <rdf:RDF xmlns:dc="http://purl.org/dc/elements/1.1/" xmlns:cc="http://creativecommons.org/ns#" xmlns:rdf="http://www.w3.org/1999/02/22-rdf-syntax-ns#">
   <cc:Work>
    <dc:type rdf:resource="http://purl.org/dc/dcmitype/StillImage"/>
    <dc:date>2026-01-07T15:36:45.568835</dc:date>
    <dc:format>image/svg+xml</dc:format>
    <dc:creator>
     <cc:Agent>
      <dc:title>Matplotlib v3.5.1, https://matplotlib.org/</dc:title>
     </cc:Agent>
    </dc:creator>
   </cc:Work>
  </rdf:RDF>
 </metadata>
 <defs>
  <style type="text/css">*{stroke-linejoin: round; stroke-linecap: butt}</style>
 </defs>
 <g id="figure_1">
  <g id="patch_1">
   <path d="M 0 287.674411 
L 365.40875 287.674411 
L 365.40875 0 
L 0 0 
z
" style="fill: #ffffff"/>
  </g>
  <g id="axes_1">
   <g id="patch_2">
    <path d="M 79.20875 230.761911 
L 358.20875 230.761911 
L 358.20875 9.001911 
L 79.20875 9.001911 
z
" style="fill: #ffffff"/>
   </g>
   <g id="matplotlib.axis_1">
    <g id="xtick_1">
     <g id="line2d_1">
      <defs>
       <path id="mb588d8aa81" d="M 0 0 
L 0 3.5 
" style="stroke: #000000; stroke-width: 0.8"/>
      </defs>
      <g>
       <use xlink:href="#mb588d8aa81" x="91.890568" y="230.761911" style="stroke: #000000; stroke-width: 0.8"/>
      </g>
     </g>
     <g id="text_1">
      <!-- $\mathdefault{10^{0}}$ -->
      <g transform="translate(77.810568 249.919411)scale(0.16 -0.16)">
       <defs>
        <path id="DejaVuSerif-31" d="M 909 0 
L 909 331 
L 1722 331 
L 1722 4213 
L 781 3603 
L 781 4013 
L 1919 4750 
L 2350 4750 
L 2350 331 
L 3163 331 
L 3163 0 
L 909 0 
z
" transform="scale(0.015625)"/>
        <path id="DejaVuSerif-30" d="M 2034 219 
Q 2513 219 2750 744 
Q 2988 1269 2988 2328 
Q 2988 3391 2750 3916 
Q 2513 4441 2034 4441 
Q 1556 4441 1318 3916 
Q 1081 3391 1081 2328 
Q 1081 1269 1318 744 
Q 1556 219 2034 219 
z
M 2034 -91 
Q 1275 -91 848 546 
Q 422 1184 422 2328 
Q 422 3475 848 4112 
Q 1275 4750 2034 4750 
Q 2797 4750 3222 4112 
Q 3647 3475 3647 2328 
Q 3647 1184 3222 546 
Q 2797 -91 2034 -91 
z
" transform="scale(0.015625)"/>
       </defs>
       <use xlink:href="#DejaVuSerif-31" transform="translate(0 0.7125)"/>
       <use xlink:href="#DejaVuSerif-30" transform="translate(63.623047 0.7125)"/>
       <use xlink:href="#DejaVuSerif-30" transform="translate(128.154453 37.046875)scale(0.7)"/>
      </g>
     </g>
    </g>
    <g id="xtick_2">
     <g id="line2d_2">
      <g>
       <use xlink:href="#mb588d8aa81" x="170.275469" y="230.761911" style="stroke: #000000; stroke-width: 0.8"/>
      </g>
     </g>
     <g id="text_2">
      <!-- $\mathdefault{10^{1}}$ -->
      <g transform="translate(156.195469 249.919411)scale(0.16 -0.16)">
       <use xlink:href="#DejaVuSerif-31" transform="translate(0 0.7125)"/>
       <use xlink:href="#DejaVuSerif-30" transform="translate(63.623047 0.7125)"/>
       <use xlink:href="#DejaVuSerif-31" transform="translate(128.154453 37.046875)scale(0.7)"/>
      </g>
     </g>
    </g>
    <g id="xtick_3">
     <g id="line2d_3">
      <g>
       <use xlink:href="#mb588d8aa81" x="248.66037" y="230.761911" style="stroke: #000000; stroke-width: 0.8"/>
      </g>
     </g>
     <g id="text_3">
      <!-- $\mathdefault{10^{2}}$ -->
      <g transform="translate(234.58037 249.919411)scale(0.16 -0.16)">
       <defs>
        <path id="DejaVuSerif-32" d="M 819 3553 
L 469 3553 
L 469 4384 
Q 803 4563 1142 4656 
Q 1481 4750 1806 4750 
Q 2534 4750 2956 4397 
Q 3378 4044 3378 3438 
Q 3378 2753 2422 1800 
Q 2347 1728 2309 1691 
L 1131 513 
L 3078 513 
L 3078 1088 
L 3444 1088 
L 3444 0 
L 434 0 
L 434 341 
L 1850 1753 
Q 2319 2222 2519 2614 
Q 2719 3006 2719 3438 
Q 2719 3909 2473 4175 
Q 2228 4441 1797 4441 
Q 1350 4441 1106 4219 
Q 863 3997 819 3553 
z
" transform="scale(0.015625)"/>
       </defs>
       <use xlink:href="#DejaVuSerif-31" transform="translate(0 0.7125)"/>
       <use xlink:href="#DejaVuSerif-30" transform="translate(63.623047 0.7125)"/>
       <use xlink:href="#DejaVuSerif-32" transform="translate(128.154453 37.046875)scale(0.7)"/>
      </g>
     </g>
    </g>
    <g id="xtick_4">
     <g id="line2d_4">
      <g>
       <use xlink:href="#mb588d8aa81" x="327.045272" y="230.761911" style="stroke: #000000; stroke-width: 0.8"/>
      </g>
     </g>
     <g id="text_4">
      <!-- $\mathdefault{10^{3}}$ -->
      <g transform="translate(312.965272 249.919411)scale(0.16 -0.16)">
       <defs>
        <path id="DejaVuSerif-33" d="M 622 4469 
Q 988 4606 1323 4678 
Q 1659 4750 1953 4750 
Q 2638 4750 3022 4454 
Q 3406 4159 3406 3634 
Q 3406 3213 3140 2930 
Q 2875 2647 2388 2547 
Q 2963 2466 3280 2130 
Q 3597 1794 3597 1259 
Q 3597 606 3158 257 
Q 2719 -91 1894 -91 
Q 1528 -91 1179 -12 
Q 831 66 488 225 
L 488 1131 
L 838 1131 
Q 869 681 1141 450 
Q 1413 219 1906 219 
Q 2384 219 2661 495 
Q 2938 772 2938 1253 
Q 2938 1803 2653 2086 
Q 2369 2369 1819 2369 
L 1522 2369 
L 1522 2688 
L 1678 2688 
Q 2225 2688 2498 2914 
Q 2772 3141 2772 3597 
Q 2772 4006 2547 4223 
Q 2322 4441 1900 4441 
Q 1478 4441 1245 4241 
Q 1013 4041 972 3647 
L 622 3647 
L 622 4469 
z
" transform="scale(0.015625)"/>
       </defs>
       <use xlink:href="#DejaVuSerif-31" transform="translate(0 0.7125)"/>
       <use xlink:href="#DejaVuSerif-30" transform="translate(63.623047 0.7125)"/>
       <use xlink:href="#DejaVuSerif-33" transform="translate(128.154453 37.046875)scale(0.7)"/>
      </g>
     </g>
    </g>
    <g id="xtick_5">
     <g id="line2d_5">
      <defs>
       <path id="ma4f56d2581" d="M 0 0 
L 0 2 
" style="stroke: #000000; stroke-width: 0.6"/>
      </defs>
      <g>
       <use xlink:href="#ma4f56d2581" x="79.748593" y="230.761911" style="stroke: #000000; stroke-width: 0.6"/>
      </g>
     </g>
    </g>
    <g id="xtick_6">
     <g id="line2d_6">
      <g>
       <use xlink:href="#ma4f56d2581" x="84.294286" y="230.761911" style="stroke: #000000; stroke-width: 0.6"/>
      </g>
     </g>
    </g>
    <g id="xtick_7">
     <g id="line2d_7">
      <g>
       <use xlink:href="#ma4f56d2581" x="88.303872" y="230.761911" style="stroke: #000000; stroke-width: 0.6"/>
      </g>
     </g>
    </g>
    <g id="xtick_8">
     <g id="line2d_8">
      <g>
       <use xlink:href="#ma4f56d2581" x="115.486775" y="230.761911" style="stroke: #000000; stroke-width: 0.6"/>
      </g>
     </g>
    </g>
    <g id="xtick_9">
     <g id="line2d_9">
      <g>
       <use xlink:href="#ma4f56d2581" x="129.289671" y="230.761911" style="stroke: #000000; stroke-width: 0.6"/>
      </g>
     </g>
    </g>
    <g id="xtick_10">
     <g id="line2d_10">
      <g>
       <use xlink:href="#ma4f56d2581" x="139.082981" y="230.761911" style="stroke: #000000; stroke-width: 0.6"/>
      </g>
     </g>
    </g>
    <g id="xtick_11">
     <g id="line2d_11">
      <g>
       <use xlink:href="#ma4f56d2581" x="146.679263" y="230.761911" style="stroke: #000000; stroke-width: 0.6"/>
      </g>
     </g>
    </g>
    <g id="xtick_12">
     <g id="line2d_12">
      <g>
       <use xlink:href="#ma4f56d2581" x="152.885877" y="230.761911" style="stroke: #000000; stroke-width: 0.6"/>
      </g>
     </g>
    </g>
    <g id="xtick_13">
     <g id="line2d_13">
      <g>
       <use xlink:href="#ma4f56d2581" x="158.133495" y="230.761911" style="stroke: #000000; stroke-width: 0.6"/>
      </g>
     </g>
    </g>
    <g id="xtick_14">
     <g id="line2d_14">
      <g>
       <use xlink:href="#ma4f56d2581" x="162.679188" y="230.761911" style="stroke: #000000; stroke-width: 0.6"/>
      </g>
     </g>
    </g>
    <g id="xtick_15">
     <g id="line2d_15">
      <g>
       <use xlink:href="#ma4f56d2581" x="166.688773" y="230.761911" style="stroke: #000000; stroke-width: 0.6"/>
      </g>
     </g>
    </g>
    <g id="xtick_16">
     <g id="line2d_16">
      <g>
       <use xlink:href="#ma4f56d2581" x="193.871676" y="230.761911" style="stroke: #000000; stroke-width: 0.6"/>
      </g>
     </g>
    </g>
    <g id="xtick_17">
     <g id="line2d_17">
      <g>
       <use xlink:href="#ma4f56d2581" x="207.674572" y="230.761911" style="stroke: #000000; stroke-width: 0.6"/>
      </g>
     </g>
    </g>
    <g id="xtick_18">
     <g id="line2d_18">
      <g>
       <use xlink:href="#ma4f56d2581" x="217.467882" y="230.761911" style="stroke: #000000; stroke-width: 0.6"/>
      </g>
     </g>
    </g>
    <g id="xtick_19">
     <g id="line2d_19">
      <g>
       <use xlink:href="#ma4f56d2581" x="225.064164" y="230.761911" style="stroke: #000000; stroke-width: 0.6"/>
      </g>
     </g>
    </g>
    <g id="xtick_20">
     <g id="line2d_20">
      <g>
       <use xlink:href="#ma4f56d2581" x="231.270778" y="230.761911" style="stroke: #000000; stroke-width: 0.6"/>
      </g>
     </g>
    </g>
    <g id="xtick_21">
     <g id="line2d_21">
      <g>
       <use xlink:href="#ma4f56d2581" x="236.518396" y="230.761911" style="stroke: #000000; stroke-width: 0.6"/>
      </g>
     </g>
    </g>
    <g id="xtick_22">
     <g id="line2d_22">
      <g>
       <use xlink:href="#ma4f56d2581" x="241.064089" y="230.761911" style="stroke: #000000; stroke-width: 0.6"/>
      </g>
     </g>
    </g>
    <g id="xtick_23">
     <g id="line2d_23">
      <g>
       <use xlink:href="#ma4f56d2581" x="245.073674" y="230.761911" style="stroke: #000000; stroke-width: 0.6"/>
      </g>
     </g>
    </g>
    <g id="xtick_24">
     <g id="line2d_24">
      <g>
       <use xlink:href="#ma4f56d2581" x="272.256577" y="230.761911" style="stroke: #000000; stroke-width: 0.6"/>
      </g>
     </g>
    </g>
    <g id="xtick_25">
     <g id="line2d_25">
      <g>
       <use xlink:href="#ma4f56d2581" x="286.059473" y="230.761911" style="stroke: #000000; stroke-width: 0.6"/>
      </g>
     </g>
    </g>
    <g id="xtick_26">
     <g id="line2d_26">
      <g>
       <use xlink:href="#ma4f56d2581" x="295.852783" y="230.761911" style="stroke: #000000; stroke-width: 0.6"/>
      </g>
     </g>
    </g>
    <g id="xtick_27">
     <g id="line2d_27">
      <g>
       <use xlink:href="#ma4f56d2581" x="303.449065" y="230.761911" style="stroke: #000000; stroke-width: 0.6"/>
      </g>
     </g>
    </g>
    <g id="xtick_28">
     <g id="line2d_28">
      <g>
       <use xlink:href="#ma4f56d2581" x="309.655679" y="230.761911" style="stroke: #000000; stroke-width: 0.6"/>
      </g>
     </g>
    </g>
    <g id="xtick_29">
     <g id="line2d_29">
      <g>
       <use xlink:href="#ma4f56d2581" x="314.903297" y="230.761911" style="stroke: #000000; stroke-width: 0.6"/>
      </g>
     </g>
    </g>
    <g id="xtick_30">
     <g id="line2d_30">
      <g>
       <use xlink:href="#ma4f56d2581" x="319.44899" y="230.761911" style="stroke: #000000; stroke-width: 0.6"/>
      </g>
     </g>
    </g>
    <g id="xtick_31">
     <g id="line2d_31">
      <g>
       <use xlink:href="#ma4f56d2581" x="323.458575" y="230.761911" style="stroke: #000000; stroke-width: 0.6"/>
      </g>
     </g>
    </g>
    <g id="xtick_32">
     <g id="line2d_32">
      <g>
       <use xlink:href="#ma4f56d2581" x="350.641478" y="230.761911" style="stroke: #000000; stroke-width: 0.6"/>
      </g>
     </g>
    </g>
    <g id="text_5">
     <!-- Avalanche Size s -->
     <g transform="translate(117.04625 275.483161)scale(0.24 -0.24)">
      <defs>
       <path id="DejaVuSerif-41" d="M 1281 1691 
L 2994 1691 
L 2138 3909 
L 1281 1691 
z
M -38 0 
L -38 331 
L 372 331 
L 2034 4666 
L 2559 4666 
L 4225 331 
L 4684 331 
L 4684 0 
L 2988 0 
L 2988 331 
L 3506 331 
L 3116 1356 
L 1153 1356 
L 763 331 
L 1275 331 
L 1275 0 
L -38 0 
z
" transform="scale(0.015625)"/>
       <path id="DejaVuSerif-76" d="M 1581 0 
L 359 2988 
L -19 2988 
L -19 3322 
L 1509 3322 
L 1509 2988 
L 978 2988 
L 1913 703 
L 2847 2988 
L 2350 2988 
L 2350 3322 
L 3597 3322 
L 3597 2988 
L 3225 2988 
L 2003 0 
L 1581 0 
z
" transform="scale(0.015625)"/>
       <path id="DejaVuSerif-61" d="M 2547 1044 
L 2547 1747 
L 1806 1747 
Q 1378 1747 1168 1562 
Q 959 1378 959 997 
Q 959 650 1171 447 
Q 1384 244 1747 244 
Q 2106 244 2326 466 
Q 2547 688 2547 1044 
z
M 3122 2075 
L 3122 331 
L 3634 331 
L 3634 0 
L 2547 0 
L 2547 359 
Q 2356 128 2106 18 
Q 1856 -91 1522 -91 
Q 969 -91 644 203 
Q 319 497 319 997 
Q 319 1513 691 1797 
Q 1063 2081 1741 2081 
L 2547 2081 
L 2547 2309 
Q 2547 2688 2317 2895 
Q 2088 3103 1672 3103 
Q 1328 3103 1125 2947 
Q 922 2791 872 2484 
L 575 2484 
L 575 3156 
Q 875 3284 1158 3348 
Q 1441 3413 1709 3413 
Q 2400 3413 2761 3070 
Q 3122 2728 3122 2075 
z
" transform="scale(0.015625)"/>
       <path id="DejaVuSerif-6c" d="M 1313 331 
L 1856 331 
L 1856 0 
L 184 0 
L 184 331 
L 738 331 
L 738 4531 
L 184 4531 
L 184 4863 
L 1313 4863 
L 1313 331 
z
" transform="scale(0.015625)"/>
       <path id="DejaVuSerif-6e" d="M 263 0 
L 263 331 
L 781 331 
L 781 2988 
L 231 2988 
L 231 3322 
L 1356 3322 
L 1356 2731 
Q 1516 3069 1770 3241 
Q 2025 3413 2363 3413 
Q 2913 3413 3172 3097 
Q 3431 2781 3431 2113 
L 3431 331 
L 3944 331 
L 3944 0 
L 2356 0 
L 2356 331 
L 2853 331 
L 2853 1931 
Q 2853 2541 2703 2767 
Q 2553 2994 2175 2994 
Q 1775 2994 1565 2701 
Q 1356 2409 1356 1850 
L 1356 331 
L 1856 331 
L 1856 0 
L 263 0 
z
" transform="scale(0.015625)"/>
       <path id="DejaVuSerif-63" d="M 3291 997 
Q 3169 466 2822 187 
Q 2475 -91 1925 -91 
Q 1200 -91 759 389 
Q 319 869 319 1663 
Q 319 2459 759 2936 
Q 1200 3413 1925 3413 
Q 2241 3413 2553 3339 
Q 2866 3266 3181 3116 
L 3181 2266 
L 2847 2266 
Q 2781 2703 2561 2903 
Q 2341 3103 1931 3103 
Q 1466 3103 1228 2742 
Q 991 2381 991 1663 
Q 991 944 1227 581 
Q 1463 219 1931 219 
Q 2303 219 2525 412 
Q 2747 606 2828 997 
L 3291 997 
z
" transform="scale(0.015625)"/>
       <path id="DejaVuSerif-68" d="M 263 0 
L 263 331 
L 781 331 
L 781 4531 
L 231 4531 
L 231 4863 
L 1356 4863 
L 1356 2731 
Q 1516 3069 1770 3241 
Q 2025 3413 2363 3413 
Q 2913 3413 3172 3097 
Q 3431 2781 3431 2113 
L 3431 331 
L 3944 331 
L 3944 0 
L 2356 0 
L 2356 331 
L 2853 331 
L 2853 1931 
Q 2853 2541 2704 2764 
Q 2556 2988 2175 2988 
Q 1775 2988 1565 2697 
Q 1356 2406 1356 1850 
L 1356 331 
L 1856 331 
L 1856 0 
L 263 0 
z
" transform="scale(0.015625)"/>
       <path id="DejaVuSerif-65" d="M 3469 1600 
L 991 1600 
L 991 1575 
Q 991 903 1244 561 
Q 1497 219 1991 219 
Q 2369 219 2611 417 
Q 2853 616 2950 1006 
L 3413 1006 
Q 3275 459 2904 184 
Q 2534 -91 1931 -91 
Q 1203 -91 761 389 
Q 319 869 319 1663 
Q 319 2450 753 2931 
Q 1188 3413 1894 3413 
Q 2647 3413 3050 2948 
Q 3453 2484 3469 1600 
z
M 2791 1931 
Q 2772 2513 2545 2808 
Q 2319 3103 1894 3103 
Q 1497 3103 1269 2806 
Q 1041 2509 991 1931 
L 2791 1931 
z
" transform="scale(0.015625)"/>
       <path id="DejaVuSerif-20" transform="scale(0.015625)"/>
       <path id="DejaVuSerif-53" d="M 594 225 
L 594 1288 
L 953 1284 
Q 969 753 1261 498 
Q 1553 244 2150 244 
Q 2706 244 2998 464 
Q 3291 684 3291 1106 
Q 3291 1444 3114 1625 
Q 2938 1806 2369 1978 
L 1753 2163 
Q 1084 2366 811 2669 
Q 538 2972 538 3500 
Q 538 4094 959 4422 
Q 1381 4750 2144 4750 
Q 2469 4750 2856 4679 
Q 3244 4609 3681 4475 
L 3681 3481 
L 3328 3481 
Q 3275 3975 2998 4195 
Q 2722 4416 2156 4416 
Q 1663 4416 1405 4214 
Q 1147 4013 1147 3628 
Q 1147 3294 1340 3103 
Q 1534 2913 2163 2725 
L 2741 2553 
Q 3375 2363 3645 2067 
Q 3916 1772 3916 1275 
Q 3916 597 3481 253 
Q 3047 -91 2188 -91 
Q 1803 -91 1404 -12 
Q 1006 66 594 225 
z
" transform="scale(0.015625)"/>
       <path id="DejaVuSerif-69" d="M 622 4353 
Q 622 4497 726 4603 
Q 831 4709 978 4709 
Q 1122 4709 1226 4603 
Q 1331 4497 1331 4353 
Q 1331 4206 1228 4103 
Q 1125 4000 978 4000 
Q 831 4000 726 4103 
Q 622 4206 622 4353 
z
M 1356 331 
L 1900 331 
L 1900 0 
L 231 0 
L 231 331 
L 781 331 
L 781 2988 
L 231 2988 
L 231 3322 
L 1356 3322 
L 1356 331 
z
" transform="scale(0.015625)"/>
       <path id="DejaVuSerif-7a" d="M 256 0 
L 256 269 
L 2338 2988 
L 691 2988 
L 691 2413 
L 359 2413 
L 359 3322 
L 3078 3322 
L 3078 3053 
L 997 331 
L 2803 331 
L 2803 934 
L 3138 934 
L 3138 0 
L 256 0 
z
" transform="scale(0.015625)"/>
       <path id="DejaVuSerif-73" d="M 359 184 
L 359 959 
L 691 959 
Q 703 588 923 403 
Q 1144 219 1575 219 
Q 1963 219 2166 364 
Q 2369 509 2369 788 
Q 2369 1006 2220 1140 
Q 2072 1275 1594 1428 
L 1178 1569 
Q 750 1706 558 1912 
Q 366 2119 366 2438 
Q 366 2894 700 3153 
Q 1034 3413 1625 3413 
Q 1888 3413 2178 3344 
Q 2469 3275 2778 3144 
L 2778 2419 
L 2447 2419 
Q 2434 2741 2221 2922 
Q 2009 3103 1644 3103 
Q 1281 3103 1095 2975 
Q 909 2847 909 2591 
Q 909 2381 1050 2254 
Q 1191 2128 1613 1997 
L 2069 1856 
Q 2541 1709 2748 1489 
Q 2956 1269 2956 922 
Q 2956 450 2595 179 
Q 2234 -91 1600 -91 
Q 1278 -91 972 -22 
Q 666 47 359 184 
z
" transform="scale(0.015625)"/>
      </defs>
      <use xlink:href="#DejaVuSerif-41"/>
      <use xlink:href="#DejaVuSerif-76" x="68.216797"/>
      <use xlink:href="#DejaVuSerif-61" x="124.710938"/>
      <use xlink:href="#DejaVuSerif-6c" x="184.330078"/>
      <use xlink:href="#DejaVuSerif-61" x="216.3125"/>
      <use xlink:href="#DejaVuSerif-6e" x="275.931641"/>
      <use xlink:href="#DejaVuSerif-63" x="340.335938"/>
      <use xlink:href="#DejaVuSerif-68" x="396.341797"/>
      <use xlink:href="#DejaVuSerif-65" x="460.746094"/>
      <use xlink:href="#DejaVuSerif-20" x="519.925781"/>
      <use xlink:href="#DejaVuSerif-53" x="551.712891"/>
      <use xlink:href="#DejaVuSerif-69" x="620.21875"/>
      <use xlink:href="#DejaVuSerif-7a" x="652.201172"/>
      <use xlink:href="#DejaVuSerif-65" x="704.886719"/>
      <use xlink:href="#DejaVuSerif-20" x="764.066406"/>
      <use xlink:href="#DejaVuSerif-73" x="795.853516"/>
     </g>
    </g>
   </g>
   <g id="matplotlib.axis_2">
    <g id="ytick_1">
     <g id="line2d_33">
      <defs>
       <path id="m69b4f9c080" d="M 0 0 
L -3.5 0 
" style="stroke: #000000; stroke-width: 0.8"/>
      </defs>
      <g>
       <use xlink:href="#m69b4f9c080" x="79.20875" y="184.252466" style="stroke: #000000; stroke-width: 0.8"/>
      </g>
     </g>
     <g id="text_6">
      <!-- $\mathdefault{10^{-6}}$ -->
      <g transform="translate(34.76875 190.331216)scale(0.16 -0.16)">
       <defs>
        <path id="DejaVuSerif-2212" d="M 678 2259 
L 4684 2259 
L 4684 1753 
L 678 1753 
L 678 2259 
z
" transform="scale(0.015625)"/>
        <path id="DejaVuSerif-36" d="M 2094 219 
Q 2534 219 2771 542 
Q 3009 866 3009 1472 
Q 3009 2078 2771 2401 
Q 2534 2725 2094 2725 
Q 1647 2725 1412 2412 
Q 1178 2100 1178 1509 
Q 1178 888 1415 553 
Q 1653 219 2094 219 
z
M 1075 2569 
Q 1288 2803 1556 2918 
Q 1825 3034 2163 3034 
Q 2859 3034 3264 2615 
Q 3669 2197 3669 1472 
Q 3669 763 3233 336 
Q 2797 -91 2069 -91 
Q 1278 -91 853 498 
Q 428 1088 428 2181 
Q 428 3406 931 4078 
Q 1434 4750 2350 4750 
Q 2597 4750 2869 4703 
Q 3141 4656 3425 4563 
L 3425 3794 
L 3072 3794 
Q 3034 4109 2831 4275 
Q 2628 4441 2284 4441 
Q 1678 4441 1381 3981 
Q 1084 3522 1075 2569 
z
" transform="scale(0.015625)"/>
       </defs>
       <use xlink:href="#DejaVuSerif-31" transform="translate(0 0.7125)"/>
       <use xlink:href="#DejaVuSerif-30" transform="translate(63.623047 0.7125)"/>
       <use xlink:href="#DejaVuSerif-2212" transform="translate(128.154453 37.046875)scale(0.7)"/>
       <use xlink:href="#DejaVuSerif-36" transform="translate(186.806797 37.046875)scale(0.7)"/>
      </g>
     </g>
    </g>
    <g id="ytick_2">
     <g id="line2d_34">
      <g>
       <use xlink:href="#m69b4f9c080" x="79.20875" y="127.261227" style="stroke: #000000; stroke-width: 0.8"/>
      </g>
     </g>
     <g id="text_7">
      <!-- $\mathdefault{10^{-4}}$ -->
      <g transform="translate(34.76875 133.339977)scale(0.16 -0.16)">
       <defs>
        <path id="DejaVuSerif-34" d="M 2234 1581 
L 2234 4063 
L 641 1581 
L 2234 1581 
z
M 3609 0 
L 1484 0 
L 1484 331 
L 2234 331 
L 2234 1247 
L 197 1247 
L 197 1588 
L 2241 4750 
L 2859 4750 
L 2859 1581 
L 3750 1581 
L 3750 1247 
L 2859 1247 
L 2859 331 
L 3609 331 
L 3609 0 
z
" transform="scale(0.015625)"/>
       </defs>
       <use xlink:href="#DejaVuSerif-31" transform="translate(0 0.7125)"/>
       <use xlink:href="#DejaVuSerif-30" transform="translate(63.623047 0.7125)"/>
       <use xlink:href="#DejaVuSerif-2212" transform="translate(128.154453 37.046875)scale(0.7)"/>
       <use xlink:href="#DejaVuSerif-34" transform="translate(186.806797 37.046875)scale(0.7)"/>
      </g>
     </g>
    </g>
    <g id="ytick_3">
     <g id="line2d_35">
      <g>
       <use xlink:href="#m69b4f9c080" x="79.20875" y="70.269989" style="stroke: #000000; stroke-width: 0.8"/>
      </g>
     </g>
     <g id="text_8">
      <!-- $\mathdefault{10^{-2}}$ -->
      <g transform="translate(34.76875 76.348739)scale(0.16 -0.16)">
       <use xlink:href="#DejaVuSerif-31" transform="translate(0 0.7125)"/>
       <use xlink:href="#DejaVuSerif-30" transform="translate(63.623047 0.7125)"/>
       <use xlink:href="#DejaVuSerif-2212" transform="translate(128.154453 37.046875)scale(0.7)"/>
       <use xlink:href="#DejaVuSerif-32" transform="translate(186.806797 37.046875)scale(0.7)"/>
      </g>
     </g>
    </g>
    <g id="ytick_4">
     <g id="line2d_36">
      <g>
       <use xlink:href="#m69b4f9c080" x="79.20875" y="13.27875" style="stroke: #000000; stroke-width: 0.8"/>
      </g>
     </g>
     <g id="text_9">
      <!-- $\mathdefault{10^{0}}$ -->
      <g transform="translate(44.04875 19.3575)scale(0.16 -0.16)">
       <use xlink:href="#DejaVuSerif-31" transform="translate(0 0.7125)"/>
       <use xlink:href="#DejaVuSerif-30" transform="translate(63.623047 0.7125)"/>
       <use xlink:href="#DejaVuSerif-30" transform="translate(128.154453 37.046875)scale(0.7)"/>
      </g>
     </g>
    </g>
    <g id="text_10">
     <!-- Probability P(s) -->
     <g transform="translate(25.43625 213.960036)rotate(-90)scale(0.24 -0.24)">
      <defs>
       <path id="DejaVuSerif-50" d="M 1581 2375 
L 2406 2375 
Q 2872 2375 3115 2626 
Q 3359 2878 3359 3353 
Q 3359 3831 3115 4081 
Q 2872 4331 2406 4331 
L 1581 4331 
L 1581 2375 
z
M 353 0 
L 353 331 
L 947 331 
L 947 4331 
L 353 4331 
L 353 4666 
L 2559 4666 
Q 3259 4666 3668 4311 
Q 4078 3956 4078 3353 
Q 4078 2753 3668 2397 
Q 3259 2041 2559 2041 
L 1581 2041 
L 1581 331 
L 2303 331 
L 2303 0 
L 353 0 
z
" transform="scale(0.015625)"/>
       <path id="DejaVuSerif-72" d="M 3059 3328 
L 3059 2497 
L 2728 2497 
Q 2713 2744 2591 2866 
Q 2469 2988 2234 2988 
Q 1809 2988 1582 2694 
Q 1356 2400 1356 1850 
L 1356 331 
L 2022 331 
L 2022 0 
L 263 0 
L 263 331 
L 781 331 
L 781 2994 
L 231 2994 
L 231 3322 
L 1356 3322 
L 1356 2731 
Q 1525 3078 1790 3245 
Q 2056 3413 2438 3413 
Q 2578 3413 2733 3391 
Q 2888 3369 3059 3328 
z
" transform="scale(0.015625)"/>
       <path id="DejaVuSerif-6f" d="M 1925 219 
Q 2388 219 2623 584 
Q 2859 950 2859 1663 
Q 2859 2375 2623 2739 
Q 2388 3103 1925 3103 
Q 1463 3103 1227 2739 
Q 991 2375 991 1663 
Q 991 950 1228 584 
Q 1466 219 1925 219 
z
M 1925 -91 
Q 1200 -91 759 389 
Q 319 869 319 1663 
Q 319 2456 758 2934 
Q 1197 3413 1925 3413 
Q 2653 3413 3092 2934 
Q 3531 2456 3531 1663 
Q 3531 869 3092 389 
Q 2653 -91 1925 -91 
z
" transform="scale(0.015625)"/>
       <path id="DejaVuSerif-62" d="M 738 331 
L 738 4531 
L 184 4531 
L 184 4863 
L 1313 4863 
L 1313 2803 
Q 1481 3116 1742 3264 
Q 2003 3413 2388 3413 
Q 3000 3413 3387 2928 
Q 3775 2444 3775 1663 
Q 3775 881 3387 395 
Q 3000 -91 2388 -91 
Q 2003 -91 1742 57 
Q 1481 206 1313 519 
L 1313 0 
L 184 0 
L 184 331 
L 738 331 
z
M 1313 1497 
Q 1313 897 1542 583 
Q 1772 269 2209 269 
Q 2650 269 2876 622 
Q 3103 975 3103 1663 
Q 3103 2353 2876 2703 
Q 2650 3053 2209 3053 
Q 1772 3053 1542 2737 
Q 1313 2422 1313 1825 
L 1313 1497 
z
" transform="scale(0.015625)"/>
       <path id="DejaVuSerif-74" d="M 691 2988 
L 184 2988 
L 184 3322 
L 691 3322 
L 691 4353 
L 1269 4353 
L 1269 3322 
L 2350 3322 
L 2350 2988 
L 1269 2988 
L 1269 878 
Q 1269 456 1350 337 
Q 1431 219 1650 219 
Q 1875 219 1978 351 
Q 2081 484 2088 781 
L 2522 781 
Q 2497 328 2275 118 
Q 2053 -91 1600 -91 
Q 1103 -91 897 129 
Q 691 350 691 878 
L 691 2988 
z
" transform="scale(0.015625)"/>
       <path id="DejaVuSerif-79" d="M 1381 -609 
L 1600 -56 
L 359 2988 
L -19 2988 
L -19 3322 
L 1509 3322 
L 1509 2988 
L 978 2988 
L 1913 703 
L 2847 2988 
L 2350 2988 
L 2350 3322 
L 3597 3322 
L 3597 2988 
L 3225 2988 
L 1703 -750 
Q 1547 -1138 1356 -1280 
Q 1166 -1422 819 -1422 
Q 672 -1422 517 -1397 
Q 363 -1372 206 -1325 
L 206 -691 
L 500 -691 
Q 519 -903 608 -995 
Q 697 -1088 884 -1088 
Q 1056 -1088 1161 -992 
Q 1266 -897 1381 -609 
z
" transform="scale(0.015625)"/>
       <path id="DejaVuSerif-28" d="M 2041 -997 
Q 1281 -656 893 83 
Q 506 822 506 1931 
Q 506 3044 893 3783 
Q 1281 4522 2041 4863 
L 2041 4556 
Q 1559 4225 1350 3623 
Q 1141 3022 1141 1931 
Q 1141 844 1350 242 
Q 1559 -359 2041 -691 
L 2041 -997 
z
" transform="scale(0.015625)"/>
       <path id="DejaVuSerif-29" d="M 453 -997 
L 453 -691 
Q 934 -359 1145 242 
Q 1356 844 1356 1931 
Q 1356 3022 1145 3623 
Q 934 4225 453 4556 
L 453 4863 
Q 1216 4522 1603 3783 
Q 1991 3044 1991 1931 
Q 1991 822 1603 83 
Q 1216 -656 453 -997 
z
" transform="scale(0.015625)"/>
      </defs>
      <use xlink:href="#DejaVuSerif-50"/>
      <use xlink:href="#DejaVuSerif-72" x="67.285156"/>
      <use xlink:href="#DejaVuSerif-6f" x="115.087891"/>
      <use xlink:href="#DejaVuSerif-62" x="175.292969"/>
      <use xlink:href="#DejaVuSerif-61" x="239.306641"/>
      <use xlink:href="#DejaVuSerif-62" x="298.925781"/>
      <use xlink:href="#DejaVuSerif-69" x="362.939453"/>
      <use xlink:href="#DejaVuSerif-6c" x="394.921875"/>
      <use xlink:href="#DejaVuSerif-69" x="426.904297"/>
      <use xlink:href="#DejaVuSerif-74" x="458.886719"/>
      <use xlink:href="#DejaVuSerif-79" x="499.072266"/>
      <use xlink:href="#DejaVuSerif-20" x="555.566406"/>
      <use xlink:href="#DejaVuSerif-50" x="587.353516"/>
      <use xlink:href="#DejaVuSerif-28" x="654.638672"/>
      <use xlink:href="#DejaVuSerif-73" x="693.652344"/>
      <use xlink:href="#DejaVuSerif-29" x="744.970703"/>
     </g>
    </g>
   </g>
   <g id="line2d_37">
    <defs>
     <path id="mc1a97b5895" d="M 0 3.5 
C 0.928211 3.5 1.81853 3.131218 2.474874 2.474874 
C 3.131218 1.81853 3.5 0.928211 3.5 0 
C 3.5 -0.928211 3.131218 -1.81853 2.474874 -2.474874 
C 1.81853 -3.131218 0.928211 -3.5 0 -3.5 
C -0.928211 -3.5 -1.81853 -3.131218 -2.474874 -2.474874 
C -3.131218 -1.81853 -3.5 -0.928211 -3.5 0 
C -3.5 0.928211 -3.131218 1.81853 -2.474874 2.474874 
C -1.81853 3.131218 -0.928211 3.5 0 3.5 
z
" style="stroke: #1f77b4"/>
    </defs>
    <g clip-path="url(#pd123f5e123)">
     <use xlink:href="#mc1a97b5895" x="91.890568" y="19.081911" style="fill: #1f77b4; stroke: #1f77b4"/>
     <use xlink:href="#mc1a97b5895" x="115.486775" y="37.200519" style="fill: #1f77b4; stroke: #1f77b4"/>
     <use xlink:href="#mc1a97b5895" x="129.289671" y="47.411659" style="fill: #1f77b4; stroke: #1f77b4"/>
     <use xlink:href="#mc1a97b5895" x="139.082981" y="53.557021" style="fill: #1f77b4; stroke: #1f77b4"/>
     <use xlink:href="#mc1a97b5895" x="146.679263" y="58.795214" style="fill: #1f77b4; stroke: #1f77b4"/>
     <use xlink:href="#mc1a97b5895" x="152.885877" y="62.513879" style="fill: #1f77b4; stroke: #1f77b4"/>
     <use xlink:href="#mc1a97b5895" x="158.133495" y="66.364859" style="fill: #1f77b4; stroke: #1f77b4"/>
     <use xlink:href="#mc1a97b5895" x="162.679188" y="70.186398" style="fill: #1f77b4; stroke: #1f77b4"/>
     <use xlink:href="#mc1a97b5895" x="166.688773" y="72.546639" style="fill: #1f77b4; stroke: #1f77b4"/>
     <use xlink:href="#mc1a97b5895" x="170.275469" y="75.421728" style="fill: #1f77b4; stroke: #1f77b4"/>
     <use xlink:href="#mc1a97b5895" x="173.520031" y="76.986785" style="fill: #1f77b4; stroke: #1f77b4"/>
     <use xlink:href="#mc1a97b5895" x="176.482083" y="79.383337" style="fill: #1f77b4; stroke: #1f77b4"/>
     <use xlink:href="#mc1a97b5895" x="179.206908" y="81.522352" style="fill: #1f77b4; stroke: #1f77b4"/>
     <use xlink:href="#mc1a97b5895" x="181.729701" y="83.505109" style="fill: #1f77b4; stroke: #1f77b4"/>
     <use xlink:href="#mc1a97b5895" x="184.078365" y="83.234025" style="fill: #1f77b4; stroke: #1f77b4"/>
     <use xlink:href="#mc1a97b5895" x="186.275394" y="87.128726" style="fill: #1f77b4; stroke: #1f77b4"/>
     <use xlink:href="#mc1a97b5895" x="188.339185" y="87.157012" style="fill: #1f77b4; stroke: #1f77b4"/>
     <use xlink:href="#mc1a97b5895" x="190.284979" y="89.11673" style="fill: #1f77b4; stroke: #1f77b4"/>
     <use xlink:href="#mc1a97b5895" x="192.125543" y="89.624687" style="fill: #1f77b4; stroke: #1f77b4"/>
     <use xlink:href="#mc1a97b5895" x="194.712265" y="90.726662" style="fill: #1f77b4; stroke: #1f77b4"/>
     <use xlink:href="#mc1a97b5895" x="197.116237" y="93.394063" style="fill: #1f77b4; stroke: #1f77b4"/>
     <use xlink:href="#mc1a97b5895" x="199.361587" y="96.404156" style="fill: #1f77b4; stroke: #1f77b4"/>
     <use xlink:href="#mc1a97b5895" x="201.467958" y="98.76856" style="fill: #1f77b4; stroke: #1f77b4"/>
     <use xlink:href="#mc1a97b5895" x="203.451555" y="98.696398" style="fill: #1f77b4; stroke: #1f77b4"/>
     <use xlink:href="#mc1a97b5895" x="205.928439" y="99.707969" style="fill: #1f77b4; stroke: #1f77b4"/>
     <use xlink:href="#mc1a97b5895" x="208.237264" y="102.597013" style="fill: #1f77b4; stroke: #1f77b4"/>
     <use xlink:href="#mc1a97b5895" x="210.399396" y="103.517929" style="fill: #1f77b4; stroke: #1f77b4"/>
     <use xlink:href="#mc1a97b5895" x="212.922189" y="105.615923" style="fill: #1f77b4; stroke: #1f77b4"/>
     <use xlink:href="#mc1a97b5895" x="215.270853" y="106.042707" style="fill: #1f77b4; stroke: #1f77b4"/>
     <use xlink:href="#mc1a97b5895" x="217.467882" y="109.190122" style="fill: #1f77b4; stroke: #1f77b4"/>
     <use xlink:href="#mc1a97b5895" x="219.531673" y="111.224452" style="fill: #1f77b4; stroke: #1f77b4"/>
     <use xlink:href="#mc1a97b5895" x="221.477468" y="111.525087" style="fill: #1f77b4; stroke: #1f77b4"/>
     <use xlink:href="#mc1a97b5895" x="224.027268" y="113.09096" style="fill: #1f77b4; stroke: #1f77b4"/>
     <use xlink:href="#mc1a97b5895" x="226.399321" y="115.474564" style="fill: #1f77b4; stroke: #1f77b4"/>
     <use xlink:href="#mc1a97b5895" x="228.616801" y="116.981718" style="fill: #1f77b4; stroke: #1f77b4"/>
     <use xlink:href="#mc1a97b5895" x="230.985905" y="118.942069" style="fill: #1f77b4; stroke: #1f77b4"/>
     <use xlink:href="#mc1a97b5895" x="233.200808" y="118.758726" style="fill: #1f77b4; stroke: #1f77b4"/>
     <use xlink:href="#mc1a97b5895" x="235.280364" y="121.272493" style="fill: #1f77b4; stroke: #1f77b4"/>
     <use xlink:href="#mc1a97b5895" x="237.477392" y="124.25902" style="fill: #1f77b4; stroke: #1f77b4"/>
     <use xlink:href="#mc1a97b5895" x="239.762957" y="125.32551" style="fill: #1f77b4; stroke: #1f77b4"/>
     <use xlink:href="#mc1a97b5895" x="241.904678" y="124.721708" style="fill: #1f77b4; stroke: #1f77b4"/>
     <use xlink:href="#mc1a97b5895" x="244.114677" y="127.336762" style="fill: #1f77b4; stroke: #1f77b4"/>
     <use xlink:href="#mc1a97b5895" x="246.372441" y="130.34334" style="fill: #1f77b4; stroke: #1f77b4"/>
     <use xlink:href="#mc1a97b5895" x="248.66037" y="128.087021" style="fill: #1f77b4; stroke: #1f77b4"/>
     <use xlink:href="#mc1a97b5895" x="250.804167" y="131.476528" style="fill: #1f77b4; stroke: #1f77b4"/>
     <use xlink:href="#mc1a97b5895" x="252.971216" y="136.284243" style="fill: #1f77b4; stroke: #1f77b4"/>
     <use xlink:href="#mc1a97b5895" x="255.289874" y="135.556063" style="fill: #1f77b4; stroke: #1f77b4"/>
     <use xlink:href="#mc1a97b5895" x="257.460625" y="135.380521" style="fill: #1f77b4; stroke: #1f77b4"/>
     <use xlink:href="#mc1a97b5895" x="259.624779" y="137.930808" style="fill: #1f77b4; stroke: #1f77b4"/>
     <use xlink:href="#mc1a97b5895" x="261.891116" y="139.045754" style="fill: #1f77b4; stroke: #1f77b4"/>
     <use xlink:href="#mc1a97b5895" x="264.124188" y="142.731601" style="fill: #1f77b4; stroke: #1f77b4"/>
     <use xlink:href="#mc1a97b5895" x="266.321216" y="142.708662" style="fill: #1f77b4; stroke: #1f77b4"/>
     <use xlink:href="#mc1a97b5895" x="268.48023" y="142.481582" style="fill: #1f77b4; stroke: #1f77b4"/>
     <use xlink:href="#mc1a97b5895" x="270.689143" y="144.776038" style="fill: #1f77b4; stroke: #1f77b4"/>
     <use xlink:href="#mc1a97b5895" x="272.930701" y="145.007363" style="fill: #1f77b4; stroke: #1f77b4"/>
     <use xlink:href="#mc1a97b5895" x="275.112081" y="149.720422" style="fill: #1f77b4; stroke: #1f77b4"/>
     <use xlink:href="#mc1a97b5895" x="277.30911" y="148.8033" style="fill: #1f77b4; stroke: #1f77b4"/>
     <use xlink:href="#mc1a97b5895" x="279.510724" y="152.712136" style="fill: #1f77b4; stroke: #1f77b4"/>
     <use xlink:href="#mc1a97b5895" x="281.707753" y="150.630368" style="fill: #1f77b4; stroke: #1f77b4"/>
     <use xlink:href="#mc1a97b5895" x="283.953102" y="154.490238" style="fill: #1f77b4; stroke: #1f77b4"/>
     <use xlink:href="#mc1a97b5895" x="286.172758" y="156.746556" style="fill: #1f77b4; stroke: #1f77b4"/>
     <use xlink:href="#mc1a97b5895" x="288.362717" y="155.72882" style="fill: #1f77b4; stroke: #1f77b4"/>
     <use xlink:href="#mc1a97b5895" x="290.569687" y="157.381337" style="fill: #1f77b4; stroke: #1f77b4"/>
     <use xlink:href="#mc1a97b5895" x="292.735641" y="154.655749" style="fill: #1f77b4; stroke: #1f77b4"/>
     <use xlink:href="#mc1a97b5895" x="294.947239" y="156.762432" style="fill: #1f77b4; stroke: #1f77b4"/>
     <use xlink:href="#mc1a97b5895" x="297.18794" y="161.095277" style="fill: #1f77b4; stroke: #1f77b4"/>
     <use xlink:href="#mc1a97b5895" x="299.367063" y="154.271196" style="fill: #1f77b4; stroke: #1f77b4"/>
     <use xlink:href="#mc1a97b5895" x="301.559294" y="158.939166" style="fill: #1f77b4; stroke: #1f77b4"/>
     <use xlink:href="#mc1a97b5895" x="303.754074" y="157.641883" style="fill: #1f77b4; stroke: #1f77b4"/>
     <use xlink:href="#mc1a97b5895" x="305.942667" y="155.936817" style="fill: #1f77b4; stroke: #1f77b4"/>
     <use xlink:href="#mc1a97b5895" x="308.147604" y="156.010735" style="fill: #1f77b4; stroke: #1f77b4"/>
     <use xlink:href="#mc1a97b5895" x="310.357604" y="156.777534" style="fill: #1f77b4; stroke: #1f77b4"/>
     <use xlink:href="#mc1a97b5895" x="312.563316" y="152.561519" style="fill: #1f77b4; stroke: #1f77b4"/>
     <use xlink:href="#mc1a97b5895" x="314.757088" y="154.099242" style="fill: #1f77b4; stroke: #1f77b4"/>
     <use xlink:href="#mc1a97b5895" x="316.955643" y="158.458145" style="fill: #1f77b4; stroke: #1f77b4"/>
     <use xlink:href="#mc1a97b5895" x="319.14981" y="161.464723" style="fill: #1f77b4; stroke: #1f77b4"/>
     <use xlink:href="#mc1a97b5895" x="321.352205" y="166.034603" style="fill: #1f77b4; stroke: #1f77b4"/>
     <use xlink:href="#mc1a97b5895" x="323.553006" y="172.328596" style="fill: #1f77b4; stroke: #1f77b4"/>
     <use xlink:href="#mc1a97b5895" x="325.74414" y="186.282746" style="fill: #1f77b4; stroke: #1f77b4"/>
     <use xlink:href="#mc1a97b5895" x="327.95222" y="197.278226" style="fill: #1f77b4; stroke: #1f77b4"/>
     <use xlink:href="#mc1a97b5895" x="332.346342" y="196.07653" style="fill: #1f77b4; stroke: #1f77b4"/>
     <use xlink:href="#mc1a97b5895" x="334.546102" y="199.472821" style="fill: #1f77b4; stroke: #1f77b4"/>
     <use xlink:href="#mc1a97b5895" x="336.74057" y="217.523897" style="fill: #1f77b4; stroke: #1f77b4"/>
     <use xlink:href="#mc1a97b5895" x="338.934398" y="209.645227" style="fill: #1f77b4; stroke: #1f77b4"/>
     <use xlink:href="#mc1a97b5895" x="341.130676" y="219.140387" style="fill: #1f77b4; stroke: #1f77b4"/>
     <use xlink:href="#mc1a97b5895" x="343.331222" y="211.297743" style="fill: #1f77b4; stroke: #1f77b4"/>
     <use xlink:href="#mc1a97b5895" x="345.526932" y="220.681911" style="fill: #1f77b4; stroke: #1f77b4"/>
    </g>
   </g>
   <g id="line2d_38">
    <path d="M 91.890568 19.772657 
L 115.486775 36.457655 
L 129.289671 46.217747 
L 139.082981 53.142652 
L 146.679263 58.51402 
L 152.885877 62.902748 
L 158.133495 66.61336 
L 162.679188 69.827646 
L 166.688773 72.662842 
L 170.275469 75.199013 
L 173.520031 77.493261 
L 176.482083 79.58774 
L 179.206908 81.514479 
L 181.729701 83.298357 
L 184.078365 84.959115 
L 186.275394 86.512646 
L 188.339185 87.971959 
L 190.284979 89.347837 
L 192.125543 90.649313 
L 194.712265 92.478397 
L 197.116237 94.178254 
L 199.361587 95.765951 
L 201.467958 97.255382 
L 203.451555 98.657993 
L 205.928439 100.409402 
L 208.237264 102.041993 
L 210.399396 103.570841 
L 212.922189 105.354725 
L 215.270853 107.01547 
L 217.467882 108.569001 
L 219.531673 110.02832 
L 221.477468 111.404204 
L 224.027268 113.207179 
L 226.399321 114.884467 
L 228.616801 116.452462 
L 230.985905 118.127664 
L 233.200808 119.693838 
L 235.280364 121.164299 
L 237.477392 122.71783 
L 239.762957 124.333959 
L 241.904678 125.848385 
L 244.114677 127.411086 
L 246.372441 129.007555 
L 248.66037 130.625368 
L 250.804167 132.141262 
L 252.971216 133.673581 
L 255.289874 135.313122 
L 257.460625 136.848078 
L 259.624779 138.378346 
L 261.891116 139.980888 
L 264.124188 141.559909 
L 266.321216 143.11344 
L 268.48023 144.640081 
L 270.689143 146.202022 
L 272.930701 147.787035 
L 275.112081 149.329504 
L 277.30911 150.883035 
L 279.510724 152.439814 
L 281.707753 153.993344 
L 283.953102 155.581034 
L 286.172758 157.150557 
L 288.362717 158.699101 
L 290.569687 160.259656 
L 292.735641 161.791216 
L 294.947239 163.355046 
L 297.18794 164.939461 
L 299.367063 166.480328 
L 301.559294 168.030462 
L 303.754074 169.582403 
L 305.942667 171.129968 
L 308.147604 172.689083 
L 310.357604 174.251785 
L 312.563316 175.811458 
L 314.757088 177.362691 
L 316.955643 178.917295 
L 319.14981 180.468801 
L 321.352205 182.026123 
L 323.553006 183.582331 
L 325.74414 185.131689 
L 327.95222 186.693032 
L 332.346342 189.800134 
L 334.546102 191.355608 
L 336.74057 192.907317 
L 338.934398 194.458579 
L 341.130676 196.01158 
L 343.331222 197.567597 
L 345.526932 199.120203 
" clip-path="url(#pd123f5e123)" style="fill: none; stroke-dasharray: 7.4,3.2; stroke-dashoffset: 0; stroke: #ff7f0e; stroke-width: 2"/>
   </g>
   <g id="patch_3">
    <path d="M 79.20875 230.761911 
L 79.20875 9.001911 
" style="fill: none; stroke: #000000; stroke-width: 0.8; stroke-linejoin: miter; stroke-linecap: square"/>
   </g>
   <g id="patch_4">
    <path d="M 358.20875 230.761911 
L 358.20875 9.001911 
" style="fill: none; stroke: #000000; stroke-width: 0.8; stroke-linejoin: miter; stroke-linecap: square"/>
   </g>
   <g id="patch_5">
    <path d="M 79.20875 230.761911 
L 358.20875 230.761911 
" style="fill: none; stroke: #000000; stroke-width: 0.8; stroke-linejoin: miter; stroke-linecap: square"/>
   </g>
   <g id="patch_6">
    <path d="M 79.20875 9.001911 
L 358.20875 9.001911 
" style="fill: none; stroke: #000000; stroke-width: 0.8; stroke-linejoin: miter; stroke-linecap: square"/>
   </g>
   <g id="legend_1">
    <g id="patch_7">
     <path d="M 208.60875 83.714411 
L 344.20875 83.714411 
Q 348.20875 83.714411 348.20875 79.714411 
L 348.20875 23.001911 
Q 348.20875 19.001911 344.20875 19.001911 
L 208.60875 19.001911 
Q 204.60875 19.001911 204.60875 23.001911 
L 204.60875 79.714411 
Q 204.60875 83.714411 208.60875 83.714411 
z
" style="fill: #ffffff; opacity: 0.8; stroke: #cccccc; stroke-linejoin: miter"/>
    </g>
    <g id="line2d_39">
     <g>
      <use xlink:href="#mc1a97b5895" x="232.60875" y="35.198786" style="fill: #1f77b4; stroke: #1f77b4"/>
     </g>
    </g>
    <g id="text_11">
     <!-- Data -->
     <g transform="translate(268.60875 42.198786)scale(0.2 -0.2)">
      <defs>
       <path id="DejaVuSerif-44" d="M 1581 331 
L 2163 331 
Q 3072 331 3558 850 
Q 4044 1369 4044 2338 
Q 4044 3306 3559 3818 
Q 3075 4331 2163 4331 
L 1581 4331 
L 1581 331 
z
M 353 0 
L 353 331 
L 947 331 
L 947 4331 
L 353 4331 
L 353 4666 
L 2209 4666 
Q 3416 4666 4089 4050 
Q 4763 3434 4763 2338 
Q 4763 1238 4088 619 
Q 3413 0 2209 0 
L 353 0 
z
" transform="scale(0.015625)"/>
      </defs>
      <use xlink:href="#DejaVuSerif-44"/>
      <use xlink:href="#DejaVuSerif-61" x="80.175781"/>
      <use xlink:href="#DejaVuSerif-74" x="139.794922"/>
      <use xlink:href="#DejaVuSerif-61" x="179.980469"/>
     </g>
    </g>
    <g id="line2d_40">
     <path d="M 212.60875 64.555036 
L 232.60875 64.555036 
L 252.60875 64.555036 
" style="fill: none; stroke-dasharray: 7.4,3.2; stroke-dashoffset: 0; stroke: #ff7f0e; stroke-width: 2"/>
    </g>
    <g id="text_12">
     <!-- ~$s^{-1.95}$ -->
     <g transform="translate(268.60875 71.555036)scale(0.2 -0.2)">
      <defs>
       <path id="DejaVuSerif-7e" d="M 4684 2522 
L 4684 2059 
Q 4372 1784 4090 1653 
Q 3809 1522 3519 1522 
Q 3219 1522 2675 1728 
L 2644 1741 
Q 2609 1753 2541 1781 
Q 2081 1959 1784 1959 
Q 1497 1959 1226 1845 
Q 956 1731 678 1491 
L 678 1966 
Q 991 2238 1270 2364 
Q 1550 2491 1844 2491 
Q 2144 2491 2688 2284 
L 2719 2272 
Q 2753 2259 2816 2234 
Q 3269 2053 3572 2053 
Q 3859 2053 4134 2168 
Q 4409 2284 4684 2522 
z
" transform="scale(0.015625)"/>
       <path id="DejaVuSans-Oblique-73" d="M 3200 3397 
L 3091 2853 
Q 2863 2978 2609 3040 
Q 2356 3103 2088 3103 
Q 1634 3103 1373 2948 
Q 1113 2794 1113 2528 
Q 1113 2219 1719 2053 
Q 1766 2041 1788 2034 
L 1972 1978 
Q 2547 1819 2739 1644 
Q 2931 1469 2931 1166 
Q 2931 609 2489 259 
Q 2047 -91 1331 -91 
Q 1053 -91 747 -37 
Q 441 16 72 128 
L 184 722 
Q 500 559 806 475 
Q 1113 391 1394 391 
Q 1816 391 2080 572 
Q 2344 753 2344 1031 
Q 2344 1331 1650 1516 
L 1591 1531 
L 1394 1581 
Q 956 1697 753 1886 
Q 550 2075 550 2369 
Q 550 2928 970 3256 
Q 1391 3584 2113 3584 
Q 2397 3584 2667 3537 
Q 2938 3491 3200 3397 
z
" transform="scale(0.015625)"/>
       <path id="DejaVuSans-2212" d="M 678 2272 
L 4684 2272 
L 4684 1741 
L 678 1741 
L 678 2272 
z
" transform="scale(0.015625)"/>
       <path id="DejaVuSans-31" d="M 794 531 
L 1825 531 
L 1825 4091 
L 703 3866 
L 703 4441 
L 1819 4666 
L 2450 4666 
L 2450 531 
L 3481 531 
L 3481 0 
L 794 0 
L 794 531 
z
" transform="scale(0.015625)"/>
       <path id="DejaVuSans-2e" d="M 684 794 
L 1344 794 
L 1344 0 
L 684 0 
L 684 794 
z
" transform="scale(0.015625)"/>
       <path id="DejaVuSans-39" d="M 703 97 
L 703 672 
Q 941 559 1184 500 
Q 1428 441 1663 441 
Q 2288 441 2617 861 
Q 2947 1281 2994 2138 
Q 2813 1869 2534 1725 
Q 2256 1581 1919 1581 
Q 1219 1581 811 2004 
Q 403 2428 403 3163 
Q 403 3881 828 4315 
Q 1253 4750 1959 4750 
Q 2769 4750 3195 4129 
Q 3622 3509 3622 2328 
Q 3622 1225 3098 567 
Q 2575 -91 1691 -91 
Q 1453 -91 1209 -44 
Q 966 3 703 97 
z
M 1959 2075 
Q 2384 2075 2632 2365 
Q 2881 2656 2881 3163 
Q 2881 3666 2632 3958 
Q 2384 4250 1959 4250 
Q 1534 4250 1286 3958 
Q 1038 3666 1038 3163 
Q 1038 2656 1286 2365 
Q 1534 2075 1959 2075 
z
" transform="scale(0.015625)"/>
       <path id="DejaVuSans-35" d="M 691 4666 
L 3169 4666 
L 3169 4134 
L 1269 4134 
L 1269 2991 
Q 1406 3038 1543 3061 
Q 1681 3084 1819 3084 
Q 2600 3084 3056 2656 
Q 3513 2228 3513 1497 
Q 3513 744 3044 326 
Q 2575 -91 1722 -91 
Q 1428 -91 1123 -41 
Q 819 9 494 109 
L 494 744 
Q 775 591 1075 516 
Q 1375 441 1709 441 
Q 2250 441 2565 725 
Q 2881 1009 2881 1497 
Q 2881 1984 2565 2268 
Q 2250 2553 1709 2553 
Q 1456 2553 1204 2497 
Q 953 2441 691 2322 
L 691 4666 
z
" transform="scale(0.015625)"/>
      </defs>
      <use xlink:href="#DejaVuSerif-7e" transform="translate(0 0.765625)"/>
      <use xlink:href="#DejaVuSans-Oblique-73" transform="translate(83.789062 0.765625)"/>
      <use xlink:href="#DejaVuSans-2212" transform="translate(140.538568 39.046875)scale(0.7)"/>
      <use xlink:href="#DejaVuSans-31" transform="translate(199.190911 39.046875)scale(0.7)"/>
      <use xlink:href="#DejaVuSans-2e" transform="translate(243.727044 39.046875)scale(0.7)"/>
      <use xlink:href="#DejaVuSans-39" transform="translate(265.978021 39.046875)scale(0.7)"/>
      <use xlink:href="#DejaVuSans-35" transform="translate(310.514154 39.046875)scale(0.7)"/>
     </g>
    </g>
   </g>
  </g>
 </g>
 <defs>
  <clipPath id="pd123f5e123">
   <rect x="79.20875" y="9.001911" width="279" height="221.76"/>
  </clipPath>
 </defs>
</svg>
