<?xml version="1.0" encoding="utf-8" standalone="no"?>
<!DOCTYPE svg PUBLIC "-//W3C//DTD SVG 1.1//EN"
  "http://www.w3.org/Graphics/SVG/1.1/DTD/svg11.dtd">
<svg xmlns:xlink="http://www.w3.org/1999/xlink" width="370.317728pt" height="287.072992pt" viewBox="0 0 370.317728 287.072992" xmlns="http://www.w3.org/2000/svg" version="1.1">
 <metadata>
  <rdf:RDF xmlns:dc="http://purl.org/dc/elements/1.1/" xmlns:cc="http://creativecommons.org/ns#" xmlns:rdf="http://www.w3.org/1999/02/22-rdf-syntax-ns#">
   <cc:Work>
    <dc:type rdf:resource="http://purl.org/dc/dcmitype/StillImage"/>
    <dc:date>2026-01-07T15:36:46.287487</dc:date>
    <dc:format>image/svg+xml</dc:format>
    <dc:creator>
     <cc:Agent>
      <dc:title>Matplotlib v3.5.1, https://matplotlib.org/</dc:title>
     </cc:Agent>
    </dc:creator>
   </cc:Work>
  </rdf:RDF>
 </metadata>
 <defs>
  <style type="text/css">*{stroke-linejoin: round; stroke-linecap: butt}</style>
 </defs>
 <g id="figure_1">
  <g id="patch_1">
   <path d="M 0 287.072992 
L 370.317728 287.072992 
L 370.317728 0 
L 0 0 
z
" style="fill: #ffffff"/>
  </g>
  <g id="axes_1">
   <g id="patch_2">
    <path d="M 79.20875 230.160492 
L 358.20875 230.160492 
L 358.20875 8.400492 
L 79.20875 8.400492 
z
" style="fill: #ffffff"/>
   </g>
   <g id="matplotlib.axis_1">
    <g id="xtick_1">
     <g id="line2d_1">
      <defs>
       <path id="m1939c1cb74" d="M 0 0 
L 0 3.5 
" style="stroke: #000000; stroke-width: 0.8"/>
      </defs>
      <g>
       <use xlink:href="#m1939c1cb74" x="91.890568" y="230.160492" style="stroke: #000000; stroke-width: 0.8"/>
      </g>
     </g>
     <g id="text_1">
      <!-- $\mathdefault{10^{0}}$ -->
      <g transform="translate(77.810568 249.317992)scale(0.16 -0.16)">
       <defs>
        <path id="DejaVuSerif-31" d="M 909 0 
L 909 331 
L 1722 331 
L 1722 4213 
L 781 3603 
L 781 4013 
L 1919 4750 
L 2350 4750 
L 2350 331 
L 3163 331 
L 3163 0 
L 909 0 
z
" transform="scale(0.015625)"/>
        <path id="DejaVuSerif-30" d="M 2034 219 
Q 2513 219 2750 744 
Q 2988 1269 2988 2328 
Q 2988 3391 2750 3916 
Q 2513 4441 2034 4441 
Q 1556 4441 1318 3916 
Q 1081 3391 1081 2328 
Q 1081 1269 1318 744 
Q 1556 219 2034 219 
z
M 2034 -91 
Q 1275 -91 848 546 
Q 422 1184 422 2328 
Q 422 3475 848 4112 
Q 1275 4750 2034 4750 
Q 2797 4750 3222 4112 
Q 3647 3475 3647 2328 
Q 3647 1184 3222 546 
Q 2797 -91 2034 -91 
z
" transform="scale(0.015625)"/>
       </defs>
       <use xlink:href="#DejaVuSerif-31" transform="translate(0 0.7125)"/>
       <use xlink:href="#DejaVuSerif-30" transform="translate(63.623047 0.7125)"/>
       <use xlink:href="#DejaVuSerif-30" transform="translate(128.154453 37.046875)scale(0.7)"/>
      </g>
     </g>
    </g>
    <g id="xtick_2">
     <g id="line2d_2">
      <g>
       <use xlink:href="#m1939c1cb74" x="177.606288" y="230.160492" style="stroke: #000000; stroke-width: 0.8"/>
      </g>
     </g>
     <g id="text_2">
      <!-- $\mathdefault{10^{1}}$ -->
      <g transform="translate(163.526288 249.317992)scale(0.16 -0.16)">
       <use xlink:href="#DejaVuSerif-31" transform="translate(0 0.7125)"/>
       <use xlink:href="#DejaVuSerif-30" transform="translate(63.623047 0.7125)"/>
       <use xlink:href="#DejaVuSerif-31" transform="translate(128.154453 37.046875)scale(0.7)"/>
      </g>
     </g>
    </g>
    <g id="xtick_3">
     <g id="line2d_3">
      <g>
       <use xlink:href="#m1939c1cb74" x="263.322008" y="230.160492" style="stroke: #000000; stroke-width: 0.8"/>
      </g>
     </g>
     <g id="text_3">
      <!-- $\mathdefault{10^{2}}$ -->
      <g transform="translate(249.242008 249.317992)scale(0.16 -0.16)">
       <defs>
        <path id="DejaVuSerif-32" d="M 819 3553 
L 469 3553 
L 469 4384 
Q 803 4563 1142 4656 
Q 1481 4750 1806 4750 
Q 2534 4750 2956 4397 
Q 3378 4044 3378 3438 
Q 3378 2753 2422 1800 
Q 2347 1728 2309 1691 
L 1131 513 
L 3078 513 
L 3078 1088 
L 3444 1088 
L 3444 0 
L 434 0 
L 434 341 
L 1850 1753 
Q 2319 2222 2519 2614 
Q 2719 3006 2719 3438 
Q 2719 3909 2473 4175 
Q 2228 4441 1797 4441 
Q 1350 4441 1106 4219 
Q 863 3997 819 3553 
z
" transform="scale(0.015625)"/>
       </defs>
       <use xlink:href="#DejaVuSerif-31" transform="translate(0 0.7125)"/>
       <use xlink:href="#DejaVuSerif-30" transform="translate(63.623047 0.7125)"/>
       <use xlink:href="#DejaVuSerif-32" transform="translate(128.154453 37.046875)scale(0.7)"/>
      </g>
     </g>
    </g>
    <g id="xtick_4">
     <g id="line2d_4">
      <g>
       <use xlink:href="#m1939c1cb74" x="349.037728" y="230.160492" style="stroke: #000000; stroke-width: 0.8"/>
      </g>
     </g>
     <g id="text_4">
      <!-- $\mathdefault{10^{3}}$ -->
      <g transform="translate(334.957728 249.317992)scale(0.16 -0.16)">
       <defs>
        <path id="DejaVuSerif-33" d="M 622 4469 
Q 988 4606 1323 4678 
Q 1659 4750 1953 4750 
Q 2638 4750 3022 4454 
Q 3406 4159 3406 3634 
Q 3406 3213 3140 2930 
Q 2875 2647 2388 2547 
Q 2963 2466 3280 2130 
Q 3597 1794 3597 1259 
Q 3597 606 3158 257 
Q 2719 -91 1894 -91 
Q 1528 -91 1179 -12 
Q 831 66 488 225 
L 488 1131 
L 838 1131 
Q 869 681 1141 450 
Q 1413 219 1906 219 
Q 2384 219 2661 495 
Q 2938 772 2938 1253 
Q 2938 1803 2653 2086 
Q 2369 2369 1819 2369 
L 1522 2369 
L 1522 2688 
L 1678 2688 
Q 2225 2688 2498 2914 
Q 2772 3141 2772 3597 
Q 2772 4006 2547 4223 
Q 2322 4441 1900 4441 
Q 1478 4441 1245 4241 
Q 1013 4041 972 3647 
L 622 3647 
L 622 4469 
z
" transform="scale(0.015625)"/>
       </defs>
       <use xlink:href="#DejaVuSerif-31" transform="translate(0 0.7125)"/>
       <use xlink:href="#DejaVuSerif-30" transform="translate(63.623047 0.7125)"/>
       <use xlink:href="#DejaVuSerif-33" transform="translate(128.154453 37.046875)scale(0.7)"/>
      </g>
     </g>
    </g>
    <g id="xtick_5">
     <g id="line2d_5">
      <defs>
       <path id="m59afcdacca" d="M 0 0 
L 0 2 
" style="stroke: #000000; stroke-width: 0.6"/>
      </defs>
      <g>
       <use xlink:href="#m59afcdacca" x="83.583857" y="230.160492" style="stroke: #000000; stroke-width: 0.6"/>
      </g>
     </g>
    </g>
    <g id="xtick_6">
     <g id="line2d_6">
      <g>
       <use xlink:href="#m59afcdacca" x="87.968432" y="230.160492" style="stroke: #000000; stroke-width: 0.6"/>
      </g>
     </g>
    </g>
    <g id="xtick_7">
     <g id="line2d_7">
      <g>
       <use xlink:href="#m59afcdacca" x="117.693571" y="230.160492" style="stroke: #000000; stroke-width: 0.6"/>
      </g>
     </g>
    </g>
    <g id="xtick_8">
     <g id="line2d_8">
      <g>
       <use xlink:href="#m59afcdacca" x="132.78736" y="230.160492" style="stroke: #000000; stroke-width: 0.6"/>
      </g>
     </g>
    </g>
    <g id="xtick_9">
     <g id="line2d_9">
      <g>
       <use xlink:href="#m59afcdacca" x="143.496574" y="230.160492" style="stroke: #000000; stroke-width: 0.6"/>
      </g>
     </g>
    </g>
    <g id="xtick_10">
     <g id="line2d_10">
      <g>
       <use xlink:href="#m59afcdacca" x="151.803285" y="230.160492" style="stroke: #000000; stroke-width: 0.6"/>
      </g>
     </g>
    </g>
    <g id="xtick_11">
     <g id="line2d_11">
      <g>
       <use xlink:href="#m59afcdacca" x="158.590363" y="230.160492" style="stroke: #000000; stroke-width: 0.6"/>
      </g>
     </g>
    </g>
    <g id="xtick_12">
     <g id="line2d_12">
      <g>
       <use xlink:href="#m59afcdacca" x="164.328755" y="230.160492" style="stroke: #000000; stroke-width: 0.6"/>
      </g>
     </g>
    </g>
    <g id="xtick_13">
     <g id="line2d_13">
      <g>
       <use xlink:href="#m59afcdacca" x="169.299577" y="230.160492" style="stroke: #000000; stroke-width: 0.6"/>
      </g>
     </g>
    </g>
    <g id="xtick_14">
     <g id="line2d_14">
      <g>
       <use xlink:href="#m59afcdacca" x="173.684152" y="230.160492" style="stroke: #000000; stroke-width: 0.6"/>
      </g>
     </g>
    </g>
    <g id="xtick_15">
     <g id="line2d_15">
      <g>
       <use xlink:href="#m59afcdacca" x="203.409291" y="230.160492" style="stroke: #000000; stroke-width: 0.6"/>
      </g>
     </g>
    </g>
    <g id="xtick_16">
     <g id="line2d_16">
      <g>
       <use xlink:href="#m59afcdacca" x="218.50308" y="230.160492" style="stroke: #000000; stroke-width: 0.6"/>
      </g>
     </g>
    </g>
    <g id="xtick_17">
     <g id="line2d_17">
      <g>
       <use xlink:href="#m59afcdacca" x="229.212294" y="230.160492" style="stroke: #000000; stroke-width: 0.6"/>
      </g>
     </g>
    </g>
    <g id="xtick_18">
     <g id="line2d_18">
      <g>
       <use xlink:href="#m59afcdacca" x="237.519005" y="230.160492" style="stroke: #000000; stroke-width: 0.6"/>
      </g>
     </g>
    </g>
    <g id="xtick_19">
     <g id="line2d_19">
      <g>
       <use xlink:href="#m59afcdacca" x="244.306083" y="230.160492" style="stroke: #000000; stroke-width: 0.6"/>
      </g>
     </g>
    </g>
    <g id="xtick_20">
     <g id="line2d_20">
      <g>
       <use xlink:href="#m59afcdacca" x="250.044475" y="230.160492" style="stroke: #000000; stroke-width: 0.6"/>
      </g>
     </g>
    </g>
    <g id="xtick_21">
     <g id="line2d_21">
      <g>
       <use xlink:href="#m59afcdacca" x="255.015297" y="230.160492" style="stroke: #000000; stroke-width: 0.6"/>
      </g>
     </g>
    </g>
    <g id="xtick_22">
     <g id="line2d_22">
      <g>
       <use xlink:href="#m59afcdacca" x="259.399872" y="230.160492" style="stroke: #000000; stroke-width: 0.6"/>
      </g>
     </g>
    </g>
    <g id="xtick_23">
     <g id="line2d_23">
      <g>
       <use xlink:href="#m59afcdacca" x="289.125011" y="230.160492" style="stroke: #000000; stroke-width: 0.6"/>
      </g>
     </g>
    </g>
    <g id="xtick_24">
     <g id="line2d_24">
      <g>
       <use xlink:href="#m59afcdacca" x="304.2188" y="230.160492" style="stroke: #000000; stroke-width: 0.6"/>
      </g>
     </g>
    </g>
    <g id="xtick_25">
     <g id="line2d_25">
      <g>
       <use xlink:href="#m59afcdacca" x="314.928014" y="230.160492" style="stroke: #000000; stroke-width: 0.6"/>
      </g>
     </g>
    </g>
    <g id="xtick_26">
     <g id="line2d_26">
      <g>
       <use xlink:href="#m59afcdacca" x="323.234726" y="230.160492" style="stroke: #000000; stroke-width: 0.6"/>
      </g>
     </g>
    </g>
    <g id="xtick_27">
     <g id="line2d_27">
      <g>
       <use xlink:href="#m59afcdacca" x="330.021803" y="230.160492" style="stroke: #000000; stroke-width: 0.6"/>
      </g>
     </g>
    </g>
    <g id="xtick_28">
     <g id="line2d_28">
      <g>
       <use xlink:href="#m59afcdacca" x="335.760195" y="230.160492" style="stroke: #000000; stroke-width: 0.6"/>
      </g>
     </g>
    </g>
    <g id="xtick_29">
     <g id="line2d_29">
      <g>
       <use xlink:href="#m59afcdacca" x="340.731017" y="230.160492" style="stroke: #000000; stroke-width: 0.6"/>
      </g>
     </g>
    </g>
    <g id="xtick_30">
     <g id="line2d_30">
      <g>
       <use xlink:href="#m59afcdacca" x="345.115592" y="230.160492" style="stroke: #000000; stroke-width: 0.6"/>
      </g>
     </g>
    </g>
    <g id="text_5">
     <!-- Avalanche Size s -->
     <g transform="translate(117.04625 274.881742)scale(0.24 -0.24)">
      <defs>
       <path id="DejaVuSerif-41" d="M 1281 1691 
L 2994 1691 
L 2138 3909 
L 1281 1691 
z
M -38 0 
L -38 331 
L 372 331 
L 2034 4666 
L 2559 4666 
L 4225 331 
L 4684 331 
L 4684 0 
L 2988 0 
L 2988 331 
L 3506 331 
L 3116 1356 
L 1153 1356 
L 763 331 
L 1275 331 
L 1275 0 
L -38 0 
z
" transform="scale(0.015625)"/>
       <path id="DejaVuSerif-76" d="M 1581 0 
L 359 2988 
L -19 2988 
L -19 3322 
L 1509 3322 
L 1509 2988 
L 978 2988 
L 1913 703 
L 2847 2988 
L 2350 2988 
L 2350 3322 
L 3597 3322 
L 3597 2988 
L 3225 2988 
L 2003 0 
L 1581 0 
z
" transform="scale(0.015625)"/>
       <path id="DejaVuSerif-61" d="M 2547 1044 
L 2547 1747 
L 1806 1747 
Q 1378 1747 1168 1562 
Q 959 1378 959 997 
Q 959 650 1171 447 
Q 1384 244 1747 244 
Q 2106 244 2326 466 
Q 2547 688 2547 1044 
z
M 3122 2075 
L 3122 331 
L 3634 331 
L 3634 0 
L 2547 0 
L 2547 359 
Q 2356 128 2106 18 
Q 1856 -91 1522 -91 
Q 969 -91 644 203 
Q 319 497 319 997 
Q 319 1513 691 1797 
Q 1063 2081 1741 2081 
L 2547 2081 
L 2547 2309 
Q 2547 2688 2317 2895 
Q 2088 3103 1672 3103 
Q 1328 3103 1125 2947 
Q 922 2791 872 2484 
L 575 2484 
L 575 3156 
Q 875 3284 1158 3348 
Q 1441 3413 1709 3413 
Q 2400 3413 2761 3070 
Q 3122 2728 3122 2075 
z
" transform="scale(0.015625)"/>
       <path id="DejaVuSerif-6c" d="M 1313 331 
L 1856 331 
L 1856 0 
L 184 0 
L 184 331 
L 738 331 
L 738 4531 
L 184 4531 
L 184 4863 
L 1313 4863 
L 1313 331 
z
" transform="scale(0.015625)"/>
       <path id="DejaVuSerif-6e" d="M 263 0 
L 263 331 
L 781 331 
L 781 2988 
L 231 2988 
L 231 3322 
L 1356 3322 
L 1356 2731 
Q 1516 3069 1770 3241 
Q 2025 3413 2363 3413 
Q 2913 3413 3172 3097 
Q 3431 2781 3431 2113 
L 3431 331 
L 3944 331 
L 3944 0 
L 2356 0 
L 2356 331 
L 2853 331 
L 2853 1931 
Q 2853 2541 2703 2767 
Q 2553 2994 2175 2994 
Q 1775 2994 1565 2701 
Q 1356 2409 1356 1850 
L 1356 331 
L 1856 331 
L 1856 0 
L 263 0 
z
" transform="scale(0.015625)"/>
       <path id="DejaVuSerif-63" d="M 3291 997 
Q 3169 466 2822 187 
Q 2475 -91 1925 -91 
Q 1200 -91 759 389 
Q 319 869 319 1663 
Q 319 2459 759 2936 
Q 1200 3413 1925 3413 
Q 2241 3413 2553 3339 
Q 2866 3266 3181 3116 
L 3181 2266 
L 2847 2266 
Q 2781 2703 2561 2903 
Q 2341 3103 1931 3103 
Q 1466 3103 1228 2742 
Q 991 2381 991 1663 
Q 991 944 1227 581 
Q 1463 219 1931 219 
Q 2303 219 2525 412 
Q 2747 606 2828 997 
L 3291 997 
z
" transform="scale(0.015625)"/>
       <path id="DejaVuSerif-68" d="M 263 0 
L 263 331 
L 781 331 
L 781 4531 
L 231 4531 
L 231 4863 
L 1356 4863 
L 1356 2731 
Q 1516 3069 1770 3241 
Q 2025 3413 2363 3413 
Q 2913 3413 3172 3097 
Q 3431 2781 3431 2113 
L 3431 331 
L 3944 331 
L 3944 0 
L 2356 0 
L 2356 331 
L 2853 331 
L 2853 1931 
Q 2853 2541 2704 2764 
Q 2556 2988 2175 2988 
Q 1775 2988 1565 2697 
Q 1356 2406 1356 1850 
L 1356 331 
L 1856 331 
L 1856 0 
L 263 0 
z
" transform="scale(0.015625)"/>
       <path id="DejaVuSerif-65" d="M 3469 1600 
L 991 1600 
L 991 1575 
Q 991 903 1244 561 
Q 1497 219 1991 219 
Q 2369 219 2611 417 
Q 2853 616 2950 1006 
L 3413 1006 
Q 3275 459 2904 184 
Q 2534 -91 1931 -91 
Q 1203 -91 761 389 
Q 319 869 319 1663 
Q 319 2450 753 2931 
Q 1188 3413 1894 3413 
Q 2647 3413 3050 2948 
Q 3453 2484 3469 1600 
z
M 2791 1931 
Q 2772 2513 2545 2808 
Q 2319 3103 1894 3103 
Q 1497 3103 1269 2806 
Q 1041 2509 991 1931 
L 2791 1931 
z
" transform="scale(0.015625)"/>
       <path id="DejaVuSerif-20" transform="scale(0.015625)"/>
       <path id="DejaVuSerif-53" d="M 594 225 
L 594 1288 
L 953 1284 
Q 969 753 1261 498 
Q 1553 244 2150 244 
Q 2706 244 2998 464 
Q 3291 684 3291 1106 
Q 3291 1444 3114 1625 
Q 2938 1806 2369 1978 
L 1753 2163 
Q 1084 2366 811 2669 
Q 538 2972 538 3500 
Q 538 4094 959 4422 
Q 1381 4750 2144 4750 
Q 2469 4750 2856 4679 
Q 3244 4609 3681 4475 
L 3681 3481 
L 3328 3481 
Q 3275 3975 2998 4195 
Q 2722 4416 2156 4416 
Q 1663 4416 1405 4214 
Q 1147 4013 1147 3628 
Q 1147 3294 1340 3103 
Q 1534 2913 2163 2725 
L 2741 2553 
Q 3375 2363 3645 2067 
Q 3916 1772 3916 1275 
Q 3916 597 3481 253 
Q 3047 -91 2188 -91 
Q 1803 -91 1404 -12 
Q 1006 66 594 225 
z
" transform="scale(0.015625)"/>
       <path id="DejaVuSerif-69" d="M 622 4353 
Q 622 4497 726 4603 
Q 831 4709 978 4709 
Q 1122 4709 1226 4603 
Q 1331 4497 1331 4353 
Q 1331 4206 1228 4103 
Q 1125 4000 978 4000 
Q 831 4000 726 4103 
Q 622 4206 622 4353 
z
M 1356 331 
L 1900 331 
L 1900 0 
L 231 0 
L 231 331 
L 781 331 
L 781 2988 
L 231 2988 
L 231 3322 
L 1356 3322 
L 1356 331 
z
" transform="scale(0.015625)"/>
       <path id="DejaVuSerif-7a" d="M 256 0 
L 256 269 
L 2338 2988 
L 691 2988 
L 691 2413 
L 359 2413 
L 359 3322 
L 3078 3322 
L 3078 3053 
L 997 331 
L 2803 331 
L 2803 934 
L 3138 934 
L 3138 0 
L 256 0 
z
" transform="scale(0.015625)"/>
       <path id="DejaVuSerif-73" d="M 359 184 
L 359 959 
L 691 959 
Q 703 588 923 403 
Q 1144 219 1575 219 
Q 1963 219 2166 364 
Q 2369 509 2369 788 
Q 2369 1006 2220 1140 
Q 2072 1275 1594 1428 
L 1178 1569 
Q 750 1706 558 1912 
Q 366 2119 366 2438 
Q 366 2894 700 3153 
Q 1034 3413 1625 3413 
Q 1888 3413 2178 3344 
Q 2469 3275 2778 3144 
L 2778 2419 
L 2447 2419 
Q 2434 2741 2221 2922 
Q 2009 3103 1644 3103 
Q 1281 3103 1095 2975 
Q 909 2847 909 2591 
Q 909 2381 1050 2254 
Q 1191 2128 1613 1997 
L 2069 1856 
Q 2541 1709 2748 1489 
Q 2956 1269 2956 922 
Q 2956 450 2595 179 
Q 2234 -91 1600 -91 
Q 1278 -91 972 -22 
Q 666 47 359 184 
z
" transform="scale(0.015625)"/>
      </defs>
      <use xlink:href="#DejaVuSerif-41"/>
      <use xlink:href="#DejaVuSerif-76" x="68.216797"/>
      <use xlink:href="#DejaVuSerif-61" x="124.710938"/>
      <use xlink:href="#DejaVuSerif-6c" x="184.330078"/>
      <use xlink:href="#DejaVuSerif-61" x="216.3125"/>
      <use xlink:href="#DejaVuSerif-6e" x="275.931641"/>
      <use xlink:href="#DejaVuSerif-63" x="340.335938"/>
      <use xlink:href="#DejaVuSerif-68" x="396.341797"/>
      <use xlink:href="#DejaVuSerif-65" x="460.746094"/>
      <use xlink:href="#DejaVuSerif-20" x="519.925781"/>
      <use xlink:href="#DejaVuSerif-53" x="551.712891"/>
      <use xlink:href="#DejaVuSerif-69" x="620.21875"/>
      <use xlink:href="#DejaVuSerif-7a" x="652.201172"/>
      <use xlink:href="#DejaVuSerif-65" x="704.886719"/>
      <use xlink:href="#DejaVuSerif-20" x="764.066406"/>
      <use xlink:href="#DejaVuSerif-73" x="795.853516"/>
     </g>
    </g>
   </g>
   <g id="matplotlib.axis_2">
    <g id="ytick_1">
     <g id="line2d_31">
      <defs>
       <path id="md8e167b415" d="M 0 0 
L -3.5 0 
" style="stroke: #000000; stroke-width: 0.8"/>
      </defs>
      <g>
       <use xlink:href="#md8e167b415" x="79.20875" y="185.742874" style="stroke: #000000; stroke-width: 0.8"/>
      </g>
     </g>
     <g id="text_6">
      <!-- $\mathdefault{10^{-6}}$ -->
      <g transform="translate(34.76875 191.821624)scale(0.16 -0.16)">
       <defs>
        <path id="DejaVuSerif-2212" d="M 678 2259 
L 4684 2259 
L 4684 1753 
L 678 1753 
L 678 2259 
z
" transform="scale(0.015625)"/>
        <path id="DejaVuSerif-36" d="M 2094 219 
Q 2534 219 2771 542 
Q 3009 866 3009 1472 
Q 3009 2078 2771 2401 
Q 2534 2725 2094 2725 
Q 1647 2725 1412 2412 
Q 1178 2100 1178 1509 
Q 1178 888 1415 553 
Q 1653 219 2094 219 
z
M 1075 2569 
Q 1288 2803 1556 2918 
Q 1825 3034 2163 3034 
Q 2859 3034 3264 2615 
Q 3669 2197 3669 1472 
Q 3669 763 3233 336 
Q 2797 -91 2069 -91 
Q 1278 -91 853 498 
Q 428 1088 428 2181 
Q 428 3406 931 4078 
Q 1434 4750 2350 4750 
Q 2597 4750 2869 4703 
Q 3141 4656 3425 4563 
L 3425 3794 
L 3072 3794 
Q 3034 4109 2831 4275 
Q 2628 4441 2284 4441 
Q 1678 4441 1381 3981 
Q 1084 3522 1075 2569 
z
" transform="scale(0.015625)"/>
       </defs>
       <use xlink:href="#DejaVuSerif-31" transform="translate(0 0.7125)"/>
       <use xlink:href="#DejaVuSerif-30" transform="translate(63.623047 0.7125)"/>
       <use xlink:href="#DejaVuSerif-2212" transform="translate(128.154453 37.046875)scale(0.7)"/>
       <use xlink:href="#DejaVuSerif-36" transform="translate(186.806797 37.046875)scale(0.7)"/>
      </g>
     </g>
    </g>
    <g id="ytick_2">
     <g id="line2d_32">
      <g>
       <use xlink:href="#md8e167b415" x="79.20875" y="128.254832" style="stroke: #000000; stroke-width: 0.8"/>
      </g>
     </g>
     <g id="text_7">
      <!-- $\mathdefault{10^{-4}}$ -->
      <g transform="translate(34.76875 134.333582)scale(0.16 -0.16)">
       <defs>
        <path id="DejaVuSerif-34" d="M 2234 1581 
L 2234 4063 
L 641 1581 
L 2234 1581 
z
M 3609 0 
L 1484 0 
L 1484 331 
L 2234 331 
L 2234 1247 
L 197 1247 
L 197 1588 
L 2241 4750 
L 2859 4750 
L 2859 1581 
L 3750 1581 
L 3750 1247 
L 2859 1247 
L 2859 331 
L 3609 331 
L 3609 0 
z
" transform="scale(0.015625)"/>
       </defs>
       <use xlink:href="#DejaVuSerif-31" transform="translate(0 0.7125)"/>
       <use xlink:href="#DejaVuSerif-30" transform="translate(63.623047 0.7125)"/>
       <use xlink:href="#DejaVuSerif-2212" transform="translate(128.154453 37.046875)scale(0.7)"/>
       <use xlink:href="#DejaVuSerif-34" transform="translate(186.806797 37.046875)scale(0.7)"/>
      </g>
     </g>
    </g>
    <g id="ytick_3">
     <g id="line2d_33">
      <g>
       <use xlink:href="#md8e167b415" x="79.20875" y="70.766791" style="stroke: #000000; stroke-width: 0.8"/>
      </g>
     </g>
     <g id="text_8">
      <!-- $\mathdefault{10^{-2}}$ -->
      <g transform="translate(34.76875 76.845541)scale(0.16 -0.16)">
       <use xlink:href="#DejaVuSerif-31" transform="translate(0 0.7125)"/>
       <use xlink:href="#DejaVuSerif-30" transform="translate(63.623047 0.7125)"/>
       <use xlink:href="#DejaVuSerif-2212" transform="translate(128.154453 37.046875)scale(0.7)"/>
       <use xlink:href="#DejaVuSerif-32" transform="translate(186.806797 37.046875)scale(0.7)"/>
      </g>
     </g>
    </g>
    <g id="ytick_4">
     <g id="line2d_34">
      <g>
       <use xlink:href="#md8e167b415" x="79.20875" y="13.27875" style="stroke: #000000; stroke-width: 0.8"/>
      </g>
     </g>
     <g id="text_9">
      <!-- $\mathdefault{10^{0}}$ -->
      <g transform="translate(44.04875 19.3575)scale(0.16 -0.16)">
       <use xlink:href="#DejaVuSerif-31" transform="translate(0 0.7125)"/>
       <use xlink:href="#DejaVuSerif-30" transform="translate(63.623047 0.7125)"/>
       <use xlink:href="#DejaVuSerif-30" transform="translate(128.154453 37.046875)scale(0.7)"/>
      </g>
     </g>
    </g>
    <g id="text_10">
     <!-- Probability P(s) -->
     <g transform="translate(25.43625 213.358617)rotate(-90)scale(0.24 -0.24)">
      <defs>
       <path id="DejaVuSerif-50" d="M 1581 2375 
L 2406 2375 
Q 2872 2375 3115 2626 
Q 3359 2878 3359 3353 
Q 3359 3831 3115 4081 
Q 2872 4331 2406 4331 
L 1581 4331 
L 1581 2375 
z
M 353 0 
L 353 331 
L 947 331 
L 947 4331 
L 353 4331 
L 353 4666 
L 2559 4666 
Q 3259 4666 3668 4311 
Q 4078 3956 4078 3353 
Q 4078 2753 3668 2397 
Q 3259 2041 2559 2041 
L 1581 2041 
L 1581 331 
L 2303 331 
L 2303 0 
L 353 0 
z
" transform="scale(0.015625)"/>
       <path id="DejaVuSerif-72" d="M 3059 3328 
L 3059 2497 
L 2728 2497 
Q 2713 2744 2591 2866 
Q 2469 2988 2234 2988 
Q 1809 2988 1582 2694 
Q 1356 2400 1356 1850 
L 1356 331 
L 2022 331 
L 2022 0 
L 263 0 
L 263 331 
L 781 331 
L 781 2994 
L 231 2994 
L 231 3322 
L 1356 3322 
L 1356 2731 
Q 1525 3078 1790 3245 
Q 2056 3413 2438 3413 
Q 2578 3413 2733 3391 
Q 2888 3369 3059 3328 
z
" transform="scale(0.015625)"/>
       <path id="DejaVuSerif-6f" d="M 1925 219 
Q 2388 219 2623 584 
Q 2859 950 2859 1663 
Q 2859 2375 2623 2739 
Q 2388 3103 1925 3103 
Q 1463 3103 1227 2739 
Q 991 2375 991 1663 
Q 991 950 1228 584 
Q 1466 219 1925 219 
z
M 1925 -91 
Q 1200 -91 759 389 
Q 319 869 319 1663 
Q 319 2456 758 2934 
Q 1197 3413 1925 3413 
Q 2653 3413 3092 2934 
Q 3531 2456 3531 1663 
Q 3531 869 3092 389 
Q 2653 -91 1925 -91 
z
" transform="scale(0.015625)"/>
       <path id="DejaVuSerif-62" d="M 738 331 
L 738 4531 
L 184 4531 
L 184 4863 
L 1313 4863 
L 1313 2803 
Q 1481 3116 1742 3264 
Q 2003 3413 2388 3413 
Q 3000 3413 3387 2928 
Q 3775 2444 3775 1663 
Q 3775 881 3387 395 
Q 3000 -91 2388 -91 
Q 2003 -91 1742 57 
Q 1481 206 1313 519 
L 1313 0 
L 184 0 
L 184 331 
L 738 331 
z
M 1313 1497 
Q 1313 897 1542 583 
Q 1772 269 2209 269 
Q 2650 269 2876 622 
Q 3103 975 3103 1663 
Q 3103 2353 2876 2703 
Q 2650 3053 2209 3053 
Q 1772 3053 1542 2737 
Q 1313 2422 1313 1825 
L 1313 1497 
z
" transform="scale(0.015625)"/>
       <path id="DejaVuSerif-74" d="M 691 2988 
L 184 2988 
L 184 3322 
L 691 3322 
L 691 4353 
L 1269 4353 
L 1269 3322 
L 2350 3322 
L 2350 2988 
L 1269 2988 
L 1269 878 
Q 1269 456 1350 337 
Q 1431 219 1650 219 
Q 1875 219 1978 351 
Q 2081 484 2088 781 
L 2522 781 
Q 2497 328 2275 118 
Q 2053 -91 1600 -91 
Q 1103 -91 897 129 
Q 691 350 691 878 
L 691 2988 
z
" transform="scale(0.015625)"/>
       <path id="DejaVuSerif-79" d="M 1381 -609 
L 1600 -56 
L 359 2988 
L -19 2988 
L -19 3322 
L 1509 3322 
L 1509 2988 
L 978 2988 
L 1913 703 
L 2847 2988 
L 2350 2988 
L 2350 3322 
L 3597 3322 
L 3597 2988 
L 3225 2988 
L 1703 -750 
Q 1547 -1138 1356 -1280 
Q 1166 -1422 819 -1422 
Q 672 -1422 517 -1397 
Q 363 -1372 206 -1325 
L 206 -691 
L 500 -691 
Q 519 -903 608 -995 
Q 697 -1088 884 -1088 
Q 1056 -1088 1161 -992 
Q 1266 -897 1381 -609 
z
" transform="scale(0.015625)"/>
       <path id="DejaVuSerif-28" d="M 2041 -997 
Q 1281 -656 893 83 
Q 506 822 506 1931 
Q 506 3044 893 3783 
Q 1281 4522 2041 4863 
L 2041 4556 
Q 1559 4225 1350 3623 
Q 1141 3022 1141 1931 
Q 1141 844 1350 242 
Q 1559 -359 2041 -691 
L 2041 -997 
z
" transform="scale(0.015625)"/>
       <path id="DejaVuSerif-29" d="M 453 -997 
L 453 -691 
Q 934 -359 1145 242 
Q 1356 844 1356 1931 
Q 1356 3022 1145 3623 
Q 934 4225 453 4556 
L 453 4863 
Q 1216 4522 1603 3783 
Q 1991 3044 1991 1931 
Q 1991 822 1603 83 
Q 1216 -656 453 -997 
z
" transform="scale(0.015625)"/>
      </defs>
      <use xlink:href="#DejaVuSerif-50"/>
      <use xlink:href="#DejaVuSerif-72" x="67.285156"/>
      <use xlink:href="#DejaVuSerif-6f" x="115.087891"/>
      <use xlink:href="#DejaVuSerif-62" x="175.292969"/>
      <use xlink:href="#DejaVuSerif-61" x="239.306641"/>
      <use xlink:href="#DejaVuSerif-62" x="298.925781"/>
      <use xlink:href="#DejaVuSerif-69" x="362.939453"/>
      <use xlink:href="#DejaVuSerif-6c" x="394.921875"/>
      <use xlink:href="#DejaVuSerif-69" x="426.904297"/>
      <use xlink:href="#DejaVuSerif-74" x="458.886719"/>
      <use xlink:href="#DejaVuSerif-79" x="499.072266"/>
      <use xlink:href="#DejaVuSerif-20" x="555.566406"/>
      <use xlink:href="#DejaVuSerif-50" x="587.353516"/>
      <use xlink:href="#DejaVuSerif-28" x="654.638672"/>
      <use xlink:href="#DejaVuSerif-73" x="693.652344"/>
      <use xlink:href="#DejaVuSerif-29" x="744.970703"/>
     </g>
    </g>
   </g>
   <g id="line2d_35">
    <defs>
     <path id="m2c5eaee21b" d="M 0 3.5 
C 0.928211 3.5 1.81853 3.131218 2.474874 2.474874 
C 3.131218 1.81853 3.5 0.928211 3.5 0 
C 3.5 -0.928211 3.131218 -1.81853 2.474874 -2.474874 
C 1.81853 -3.131218 0.928211 -3.5 0 -3.5 
C -0.928211 -3.5 -1.81853 -3.131218 -2.474874 -2.474874 
C -3.131218 -1.81853 -3.5 -0.928211 -3.5 0 
C -3.5 0.928211 -3.131218 1.81853 -2.474874 2.474874 
C -1.81853 3.131218 -0.928211 3.5 0 3.5 
z
" style="stroke: #1f77b4"/>
    </defs>
    <g clip-path="url(#p53264deaf3)">
     <use xlink:href="#m2c5eaee21b" x="91.890568" y="19.41962" style="fill: #1f77b4; stroke: #1f77b4"/>
     <use xlink:href="#m2c5eaee21b" x="117.693571" y="37.942965" style="fill: #1f77b4; stroke: #1f77b4"/>
     <use xlink:href="#m2c5eaee21b" x="132.78736" y="47.593207" style="fill: #1f77b4; stroke: #1f77b4"/>
     <use xlink:href="#m2c5eaee21b" x="143.496574" y="53.764912" style="fill: #1f77b4; stroke: #1f77b4"/>
     <use xlink:href="#m2c5eaee21b" x="151.803285" y="58.977606" style="fill: #1f77b4; stroke: #1f77b4"/>
     <use xlink:href="#m2c5eaee21b" x="158.590363" y="62.609815" style="fill: #1f77b4; stroke: #1f77b4"/>
     <use xlink:href="#m2c5eaee21b" x="164.328755" y="66.303166" style="fill: #1f77b4; stroke: #1f77b4"/>
     <use xlink:href="#m2c5eaee21b" x="169.299577" y="69.330918" style="fill: #1f77b4; stroke: #1f77b4"/>
     <use xlink:href="#m2c5eaee21b" x="173.684152" y="71.597128" style="fill: #1f77b4; stroke: #1f77b4"/>
     <use xlink:href="#m2c5eaee21b" x="177.606288" y="73.936315" style="fill: #1f77b4; stroke: #1f77b4"/>
     <use xlink:href="#m2c5eaee21b" x="181.154292" y="75.68433" style="fill: #1f77b4; stroke: #1f77b4"/>
     <use xlink:href="#m2c5eaee21b" x="184.393366" y="77.586635" style="fill: #1f77b4; stroke: #1f77b4"/>
     <use xlink:href="#m2c5eaee21b" x="187.373025" y="79.607062" style="fill: #1f77b4; stroke: #1f77b4"/>
     <use xlink:href="#m2c5eaee21b" x="190.131758" y="81.710195" style="fill: #1f77b4; stroke: #1f77b4"/>
     <use xlink:href="#m2c5eaee21b" x="192.700077" y="83.057534" style="fill: #1f77b4; stroke: #1f77b4"/>
     <use xlink:href="#m2c5eaee21b" x="195.10258" y="83.882789" style="fill: #1f77b4; stroke: #1f77b4"/>
     <use xlink:href="#m2c5eaee21b" x="197.359383" y="86.298808" style="fill: #1f77b4; stroke: #1f77b4"/>
     <use xlink:href="#m2c5eaee21b" x="199.487155" y="87.418585" style="fill: #1f77b4; stroke: #1f77b4"/>
     <use xlink:href="#m2c5eaee21b" x="201.499854" y="88.142072" style="fill: #1f77b4; stroke: #1f77b4"/>
     <use xlink:href="#m2c5eaee21b" x="203.409291" y="89.267202" style="fill: #1f77b4; stroke: #1f77b4"/>
     <use xlink:href="#m2c5eaee21b" x="205.225547" y="90.773433" style="fill: #1f77b4; stroke: #1f77b4"/>
     <use xlink:href="#m2c5eaee21b" x="207.793866" y="92.22568" style="fill: #1f77b4; stroke: #1f77b4"/>
     <use xlink:href="#m2c5eaee21b" x="210.196369" y="95.035201" style="fill: #1f77b4; stroke: #1f77b4"/>
     <use xlink:href="#m2c5eaee21b" x="211.716003" y="94.495929" style="fill: #1f77b4; stroke: #1f77b4"/>
     <use xlink:href="#m2c5eaee21b" x="213.176028" y="97.172986" style="fill: #1f77b4; stroke: #1f77b4"/>
     <use xlink:href="#m2c5eaee21b" x="215.264006" y="96.933591" style="fill: #1f77b4; stroke: #1f77b4"/>
     <use xlink:href="#m2c5eaee21b" x="217.241066" y="99.206789" style="fill: #1f77b4; stroke: #1f77b4"/>
     <use xlink:href="#m2c5eaee21b" x="219.118398" y="99.563238" style="fill: #1f77b4; stroke: #1f77b4"/>
     <use xlink:href="#m2c5eaee21b" x="220.905582" y="99.649629" style="fill: #1f77b4; stroke: #1f77b4"/>
     <use xlink:href="#m2c5eaee21b" x="222.610882" y="102.989135" style="fill: #1f77b4; stroke: #1f77b4"/>
     <use xlink:href="#m2c5eaee21b" x="224.241472" y="103.568782" style="fill: #1f77b4; stroke: #1f77b4"/>
     <use xlink:href="#m2c5eaee21b" x="225.803626" y="105.712569" style="fill: #1f77b4; stroke: #1f77b4"/>
     <use xlink:href="#m2c5eaee21b" x="227.789476" y="105.242486" style="fill: #1f77b4; stroke: #1f77b4"/>
     <use xlink:href="#m2c5eaee21b" x="229.674733" y="106.557741" style="fill: #1f77b4; stroke: #1f77b4"/>
     <use xlink:href="#m2c5eaee21b" x="231.469098" y="108.833728" style="fill: #1f77b4; stroke: #1f77b4"/>
     <use xlink:href="#m2c5eaee21b" x="233.180933" y="109.929796" style="fill: #1f77b4; stroke: #1f77b4"/>
     <use xlink:href="#m2c5eaee21b" x="235.21564" y="112.048758" style="fill: #1f77b4; stroke: #1f77b4"/>
     <use xlink:href="#m2c5eaee21b" x="237.144873" y="111.395188" style="fill: #1f77b4; stroke: #1f77b4"/>
     <use xlink:href="#m2c5eaee21b" x="238.619357" y="115.639999" style="fill: #1f77b4; stroke: #1f77b4"/>
     <use xlink:href="#m2c5eaee21b" x="240.383947" y="114.717855" style="fill: #1f77b4; stroke: #1f77b4"/>
     <use xlink:href="#m2c5eaee21b" x="242.396646" y="116.324191" style="fill: #1f77b4; stroke: #1f77b4"/>
     <use xlink:href="#m2c5eaee21b" x="244.306083" y="115.934731" style="fill: #1f77b4; stroke: #1f77b4"/>
     <use xlink:href="#m2c5eaee21b" x="246.122339" y="119.625783" style="fill: #1f77b4; stroke: #1f77b4"/>
     <use xlink:href="#m2c5eaee21b" x="247.854087" y="119.974178" style="fill: #1f77b4; stroke: #1f77b4"/>
     <use xlink:href="#m2c5eaee21b" x="249.508842" y="121.211166" style="fill: #1f77b4; stroke: #1f77b4"/>
     <use xlink:href="#m2c5eaee21b" x="251.35078" y="123.803205" style="fill: #1f77b4; stroke: #1f77b4"/>
     <use xlink:href="#m2c5eaee21b" x="253.10586" y="125.333695" style="fill: #1f77b4; stroke: #1f77b4"/>
     <use xlink:href="#m2c5eaee21b" x="254.781905" y="126.103222" style="fill: #1f77b4; stroke: #1f77b4"/>
     <use xlink:href="#m2c5eaee21b" x="256.609308" y="127.000617" style="fill: #1f77b4; stroke: #1f77b4"/>
     <use xlink:href="#m2c5eaee21b" x="258.563301" y="127.917386" style="fill: #1f77b4; stroke: #1f77b4"/>
     <use xlink:href="#m2c5eaee21b" x="260.419823" y="129.199307" style="fill: #1f77b4; stroke: #1f77b4"/>
     <use xlink:href="#m2c5eaee21b" x="262.188138" y="131.984891" style="fill: #1f77b4; stroke: #1f77b4"/>
     <use xlink:href="#m2c5eaee21b" x="263.87625" y="132.821411" style="fill: #1f77b4; stroke: #1f77b4"/>
     <use xlink:href="#m2c5eaee21b" x="265.6663" y="133.36883" style="fill: #1f77b4; stroke: #1f77b4"/>
     <use xlink:href="#m2c5eaee21b" x="267.540767" y="135.362213" style="fill: #1f77b4; stroke: #1f77b4"/>
     <use xlink:href="#m2c5eaee21b" x="269.325354" y="136.262496" style="fill: #1f77b4; stroke: #1f77b4"/>
     <use xlink:href="#m2c5eaee21b" x="271.02829" y="137.759991" style="fill: #1f77b4; stroke: #1f77b4"/>
     <use xlink:href="#m2c5eaee21b" x="272.801285" y="139.807301" style="fill: #1f77b4; stroke: #1f77b4"/>
     <use xlink:href="#m2c5eaee21b" x="274.63128" y="143.578361" style="fill: #1f77b4; stroke: #1f77b4"/>
     <use xlink:href="#m2c5eaee21b" x="276.375513" y="139.807301" style="fill: #1f77b4; stroke: #1f77b4"/>
     <use xlink:href="#m2c5eaee21b" x="278.166794" y="144.930824" style="fill: #1f77b4; stroke: #1f77b4"/>
     <use xlink:href="#m2c5eaee21b" x="279.875822" y="144.206947" style="fill: #1f77b4; stroke: #1f77b4"/>
     <use xlink:href="#m2c5eaee21b" x="281.623837" y="147.975261" style="fill: #1f77b4; stroke: #1f77b4"/>
     <use xlink:href="#m2c5eaee21b" x="283.402126" y="147.76892" style="fill: #1f77b4; stroke: #1f77b4"/>
     <use xlink:href="#m2c5eaee21b" x="285.202875" y="150.994186" style="fill: #1f77b4; stroke: #1f77b4"/>
     <use xlink:href="#m2c5eaee21b" x="287.019131" y="154.507161" style="fill: #1f77b4; stroke: #1f77b4"/>
     <use xlink:href="#m2c5eaee21b" x="288.844765" y="156.795638" style="fill: #1f77b4; stroke: #1f77b4"/>
     <use xlink:href="#m2c5eaee21b" x="290.585036" y="159.884784" style="fill: #1f77b4; stroke: #1f77b4"/>
     <use xlink:href="#m2c5eaee21b" x="292.33305" y="157.98543" style="fill: #1f77b4; stroke: #1f77b4"/>
     <use xlink:href="#m2c5eaee21b" x="294.165566" y="159.413657" style="fill: #1f77b4; stroke: #1f77b4"/>
     <use xlink:href="#m2c5eaee21b" x="295.912089" y="162.389831" style="fill: #1f77b4; stroke: #1f77b4"/>
     <use xlink:href="#m2c5eaee21b" x="297.65441" y="165.006515" style="fill: #1f77b4; stroke: #1f77b4"/>
     <use xlink:href="#m2c5eaee21b" x="299.460092" y="165.47443" style="fill: #1f77b4; stroke: #1f77b4"/>
     <use xlink:href="#m2c5eaee21b" x="301.24948" y="164.475228" style="fill: #1f77b4; stroke: #1f77b4"/>
     <use xlink:href="#m2c5eaee21b" x="303.020913" y="176.138555" style="fill: #1f77b4; stroke: #1f77b4"/>
     <use xlink:href="#m2c5eaee21b" x="304.773042" y="171.461118" style="fill: #1f77b4; stroke: #1f77b4"/>
     <use xlink:href="#m2c5eaee21b" x="306.504789" y="175.913623" style="fill: #1f77b4; stroke: #1f77b4"/>
     <use xlink:href="#m2c5eaee21b" x="308.271" y="177.805477" style="fill: #1f77b4; stroke: #1f77b4"/>
     <use xlink:href="#m2c5eaee21b" x="310.0634" y="184.204574" style="fill: #1f77b4; stroke: #1f77b4"/>
     <use xlink:href="#m2c5eaee21b" x="311.874606" y="177.190409" style="fill: #1f77b4; stroke: #1f77b4"/>
     <use xlink:href="#m2c5eaee21b" x="313.64995" y="189.11841" style="fill: #1f77b4; stroke: #1f77b4"/>
     <use xlink:href="#m2c5eaee21b" x="315.390453" y="192.578935" style="fill: #1f77b4; stroke: #1f77b4"/>
     <use xlink:href="#m2c5eaee21b" x="317.184818" y="188.766743" style="fill: #1f77b4; stroke: #1f77b4"/>
     <use xlink:href="#m2c5eaee21b" x="318.980213" y="202.481126" style="fill: #1f77b4; stroke: #1f77b4"/>
     <use xlink:href="#m2c5eaee21b" x="320.732822" y="203.061853" style="fill: #1f77b4; stroke: #1f77b4"/>
     <use xlink:href="#m2c5eaee21b" x="326.030666" y="204.657645" style="fill: #1f77b4; stroke: #1f77b4"/>
     <use xlink:href="#m2c5eaee21b" x="327.784383" y="200.556807" style="fill: #1f77b4; stroke: #1f77b4"/>
     <use xlink:href="#m2c5eaee21b" x="329.584948" y="215.163239" style="fill: #1f77b4; stroke: #1f77b4"/>
     <use xlink:href="#m2c5eaee21b" x="333.115827" y="215.995772" style="fill: #1f77b4; stroke: #1f77b4"/>
     <use xlink:href="#m2c5eaee21b" x="340.21561" y="218.204462" style="fill: #1f77b4; stroke: #1f77b4"/>
     <use xlink:href="#m2c5eaee21b" x="345.526932" y="220.080492" style="fill: #1f77b4; stroke: #1f77b4"/>
    </g>
   </g>
   <g id="line2d_36">
    <path d="M 91.890568 18.480492 
L 117.693571 35.250792 
L 132.78736 45.060788 
L 143.496574 52.021093 
L 151.803285 57.419924 
L 158.590363 61.831092 
L 164.328755 65.560676 
L 169.299577 68.791393 
L 173.684152 71.641084 
L 177.606288 74.19022 
L 181.154292 76.496202 
L 184.393366 78.601388 
L 187.373025 80.537974 
L 190.131758 82.33098 
L 192.700077 84.000226 
L 195.10258 85.561693 
L 197.359383 87.02847 
L 199.487155 88.411387 
L 201.499854 89.719515 
L 203.409291 90.960524 
L 205.225547 92.140972 
L 207.793866 93.810218 
L 210.196369 95.371691 
L 211.716003 96.359355 
L 213.176028 97.308278 
L 215.264006 98.665331 
L 217.241066 99.950295 
L 219.118398 101.170442 
L 220.905582 102.33199 
L 222.610882 103.44033 
L 224.241472 104.500114 
L 225.803626 105.515402 
L 227.789476 106.806089 
L 229.674733 108.031377 
L 231.469098 109.197598 
L 233.180933 110.310187 
L 235.21564 111.632618 
L 237.144873 112.886497 
L 238.619357 113.844815 
L 240.383947 114.991683 
L 242.396646 116.29981 
L 244.306083 117.54082 
L 246.122339 118.721267 
L 247.854087 119.846795 
L 249.508842 120.922281 
L 251.35078 122.119423 
L 253.10586 123.260115 
L 254.781905 124.349438 
L 256.609308 125.537137 
L 258.563301 126.807099 
L 260.419823 128.01372 
L 262.188138 129.163006 
L 263.87625 130.260176 
L 265.6663 131.4236 
L 267.540767 132.641864 
L 269.325354 133.801739 
L 271.02829 134.908543 
L 272.801285 136.060879 
L 274.63128 137.250264 
L 276.375513 138.383905 
L 278.166794 139.548112 
L 279.875822 140.658877 
L 281.623837 141.794972 
L 283.402126 142.950748 
L 285.202875 144.121108 
L 287.019131 145.30157 
L 288.844765 146.488117 
L 290.585036 147.619168 
L 292.33305 148.755277 
L 294.165566 149.946305 
L 295.912089 151.081427 
L 297.65441 152.21382 
L 299.460092 153.387402 
L 301.24948 154.550388 
L 303.020913 155.70171 
L 304.773042 156.840478 
L 306.504789 157.965991 
L 308.271 159.113927 
L 310.0634 160.278874 
L 311.874606 161.456032 
L 313.64995 162.609904 
L 315.390453 163.741105 
L 317.184818 164.907326 
L 318.980213 166.074232 
L 320.732822 167.213315 
L 326.030666 170.656577 
L 327.784383 171.796373 
L 329.584948 172.966624 
L 333.115827 175.261469 
L 340.21561 179.875872 
L 345.526932 183.327893 
" clip-path="url(#p53264deaf3)" style="fill: none; stroke-dasharray: 7.4,3.2; stroke-dashoffset: 0; stroke: #ff7f0e; stroke-width: 2"/>
   </g>
   <g id="patch_3">
    <path d="M 79.20875 230.160492 
L 79.20875 8.400492 
" style="fill: none; stroke: #000000; stroke-width: 0.8; stroke-linejoin: miter; stroke-linecap: square"/>
   </g>
   <g id="patch_4">
    <path d="M 358.20875 230.160492 
L 358.20875 8.400492 
" style="fill: none; stroke: #000000; stroke-width: 0.8; stroke-linejoin: miter; stroke-linecap: square"/>
   </g>
   <g id="patch_5">
    <path d="M 79.20875 230.160492 
L 358.20875 230.160492 
" style="fill: none; stroke: #000000; stroke-width: 0.8; stroke-linejoin: miter; stroke-linecap: square"/>
   </g>
   <g id="patch_6">
    <path d="M 79.20875 8.400492 
L 358.20875 8.400492 
" style="fill: none; stroke: #000000; stroke-width: 0.8; stroke-linejoin: miter; stroke-linecap: square"/>
   </g>
   <g id="legend_1">
    <g id="patch_7">
     <path d="M 208.60875 83.112992 
L 344.20875 83.112992 
Q 348.20875 83.112992 348.20875 79.112992 
L 348.20875 22.400492 
Q 348.20875 18.400492 344.20875 18.400492 
L 208.60875 18.400492 
Q 204.60875 18.400492 204.60875 22.400492 
L 204.60875 79.112992 
Q 204.60875 83.112992 208.60875 83.112992 
z
" style="fill: #ffffff; opacity: 0.8; stroke: #cccccc; stroke-linejoin: miter"/>
    </g>
    <g id="line2d_37">
     <g>
      <use xlink:href="#m2c5eaee21b" x="232.60875" y="34.597367" style="fill: #1f77b4; stroke: #1f77b4"/>
     </g>
    </g>
    <g id="text_11">
     <!-- Data -->
     <g transform="translate(268.60875 41.597367)scale(0.2 -0.2)">
      <defs>
       <path id="DejaVuSerif-44" d="M 1581 331 
L 2163 331 
Q 3072 331 3558 850 
Q 4044 1369 4044 2338 
Q 4044 3306 3559 3818 
Q 3075 4331 2163 4331 
L 1581 4331 
L 1581 331 
z
M 353 0 
L 353 331 
L 947 331 
L 947 4331 
L 353 4331 
L 353 4666 
L 2209 4666 
Q 3416 4666 4089 4050 
Q 4763 3434 4763 2338 
Q 4763 1238 4088 619 
Q 3413 0 2209 0 
L 353 0 
z
" transform="scale(0.015625)"/>
      </defs>
      <use xlink:href="#DejaVuSerif-44"/>
      <use xlink:href="#DejaVuSerif-61" x="80.175781"/>
      <use xlink:href="#DejaVuSerif-74" x="139.794922"/>
      <use xlink:href="#DejaVuSerif-61" x="179.980469"/>
     </g>
    </g>
    <g id="line2d_38">
     <path d="M 212.60875 63.953617 
L 232.60875 63.953617 
L 252.60875 63.953617 
" style="fill: none; stroke-dasharray: 7.4,3.2; stroke-dashoffset: 0; stroke: #ff7f0e; stroke-width: 2"/>
    </g>
    <g id="text_12">
     <!-- ~$s^{-1.94}$ -->
     <g transform="translate(268.60875 70.953617)scale(0.2 -0.2)">
      <defs>
       <path id="DejaVuSerif-7e" d="M 4684 2522 
L 4684 2059 
Q 4372 1784 4090 1653 
Q 3809 1522 3519 1522 
Q 3219 1522 2675 1728 
L 2644 1741 
Q 2609 1753 2541 1781 
Q 2081 1959 1784 1959 
Q 1497 1959 1226 1845 
Q 956 1731 678 1491 
L 678 1966 
Q 991 2238 1270 2364 
Q 1550 2491 1844 2491 
Q 2144 2491 2688 2284 
L 2719 2272 
Q 2753 2259 2816 2234 
Q 3269 2053 3572 2053 
Q 3859 2053 4134 2168 
Q 4409 2284 4684 2522 
z
" transform="scale(0.015625)"/>
       <path id="DejaVuSans-Oblique-73" d="M 3200 3397 
L 3091 2853 
Q 2863 2978 2609 3040 
Q 2356 3103 2088 3103 
Q 1634 3103 1373 2948 
Q 1113 2794 1113 2528 
Q 1113 2219 1719 2053 
Q 1766 2041 1788 2034 
L 1972 1978 
Q 2547 1819 2739 1644 
Q 2931 1469 2931 1166 
Q 2931 609 2489 259 
Q 2047 -91 1331 -91 
Q 1053 -91 747 -37 
Q 441 16 72 128 
L 184 722 
Q 500 559 806 475 
Q 1113 391 1394 391 
Q 1816 391 2080 572 
Q 2344 753 2344 1031 
Q 2344 1331 1650 1516 
L 1591 1531 
L 1394 1581 
Q 956 1697 753 1886 
Q 550 2075 550 2369 
Q 550 2928 970 3256 
Q 1391 3584 2113 3584 
Q 2397 3584 2667 3537 
Q 2938 3491 3200 3397 
z
" transform="scale(0.015625)"/>
       <path id="DejaVuSans-2212" d="M 678 2272 
L 4684 2272 
L 4684 1741 
L 678 1741 
L 678 2272 
z
" transform="scale(0.015625)"/>
       <path id="DejaVuSans-31" d="M 794 531 
L 1825 531 
L 1825 4091 
L 703 3866 
L 703 4441 
L 1819 4666 
L 2450 4666 
L 2450 531 
L 3481 531 
L 3481 0 
L 794 0 
L 794 531 
z
" transform="scale(0.015625)"/>
       <path id="DejaVuSans-2e" d="M 684 794 
L 1344 794 
L 1344 0 
L 684 0 
L 684 794 
z
" transform="scale(0.015625)"/>
       <path id="DejaVuSans-39" d="M 703 97 
L 703 672 
Q 941 559 1184 500 
Q 1428 441 1663 441 
Q 2288 441 2617 861 
Q 2947 1281 2994 2138 
Q 2813 1869 2534 1725 
Q 2256 1581 1919 1581 
Q 1219 1581 811 2004 
Q 403 2428 403 3163 
Q 403 3881 828 4315 
Q 1253 4750 1959 4750 
Q 2769 4750 3195 4129 
Q 3622 3509 3622 2328 
Q 3622 1225 3098 567 
Q 2575 -91 1691 -91 
Q 1453 -91 1209 -44 
Q 966 3 703 97 
z
M 1959 2075 
Q 2384 2075 2632 2365 
Q 2881 2656 2881 3163 
Q 2881 3666 2632 3958 
Q 2384 4250 1959 4250 
Q 1534 4250 1286 3958 
Q 1038 3666 1038 3163 
Q 1038 2656 1286 2365 
Q 1534 2075 1959 2075 
z
" transform="scale(0.015625)"/>
       <path id="DejaVuSans-34" d="M 2419 4116 
L 825 1625 
L 2419 1625 
L 2419 4116 
z
M 2253 4666 
L 3047 4666 
L 3047 1625 
L 3713 1625 
L 3713 1100 
L 3047 1100 
L 3047 0 
L 2419 0 
L 2419 1100 
L 313 1100 
L 313 1709 
L 2253 4666 
z
" transform="scale(0.015625)"/>
      </defs>
      <use xlink:href="#DejaVuSerif-7e" transform="translate(0 0.765625)"/>
      <use xlink:href="#DejaVuSans-Oblique-73" transform="translate(83.789062 0.765625)"/>
      <use xlink:href="#DejaVuSans-2212" transform="translate(140.538568 39.046875)scale(0.7)"/>
      <use xlink:href="#DejaVuSans-31" transform="translate(199.190911 39.046875)scale(0.7)"/>
      <use xlink:href="#DejaVuSans-2e" transform="translate(243.727044 39.046875)scale(0.7)"/>
      <use xlink:href="#DejaVuSans-39" transform="translate(265.978021 39.046875)scale(0.7)"/>
      <use xlink:href="#DejaVuSans-34" transform="translate(310.514154 39.046875)scale(0.7)"/>
     </g>
    </g>
   </g>
  </g>
 </g>
 <defs>
  <clipPath id="p53264deaf3">
   <rect x="79.20875" y="8.400492" width="279" height="221.76"/>
  </clipPath>
 </defs>
</svg>
